<svg version="1.1" id="Layer_1" xmlns="http://www.w3.org/2000/svg" xmlns:xlink="http://www.w3.org/1999/xlink" x="0px" y="0px"
	 width="100%" viewBox="0 0 772 690" enable-background="new 0 0 772 690" xml:space="preserve">
<path fill="none" opacity="1.000000" stroke="#000000" stroke-linecap="round" stroke-linejoin="round" stroke-width="11.000000"
	d="
M203.000000,390.000000 
	C203.000000,411.500000 202.997482,433.000000 203.001389,454.500000 
	C203.002731,461.925568 204.074417,462.998596 211.500000,462.998688 
	C333.166656,463.000519 454.833344,463.000519 576.500000,462.998718 
	C583.925598,462.998596 584.998535,461.925568 584.998718,454.500000 
	C585.000854,376.500000 585.000854,298.500000 584.998718,220.500000 
	C584.998535,213.074417 583.925598,212.001785 576.500000,212.001343 
	C530.833313,211.998657 485.166656,212.009399 439.500000,211.978546 
	C436.499908,211.976517 433.500000,211.666672 430.500000,211.500015 
"/>
<path fill="none" opacity="1.000000" stroke="#000000" stroke-linecap="round" stroke-linejoin="round" stroke-width="12.000000"
	d="
M174.500000,371.000000 
	C173.375839,403.828461 174.297913,436.667328 174.022430,469.500183 
	C174.012650,470.665375 174.231689,471.858826 174.516724,472.995819 
	C176.208038,479.742645 175.822052,480.183105 169.011414,482.041840 
	C162.218231,483.895752 155.264221,485.008911 148.447952,486.802185 
	C144.427292,487.859924 141.218536,489.834320 138.029068,492.041992 
	C131.250717,496.733856 131.156815,511.436279 136.525024,517.477783 
	C141.279556,522.828552 146.512344,527.585022 153.487549,530.035461 
	C157.093033,531.302063 160.781601,531.484436 164.500000,531.484863 
	C317.500000,531.502563 470.500031,531.455017 623.499939,531.578735 
	C636.857971,531.589539 646.224365,524.927917 653.364014,514.903137 
	C660.264648,505.213898 652.950989,490.069397 640.493103,487.028137 
	C634.366089,485.532349 628.166992,484.331909 621.999634,483.001770 
	C621.169006,482.822571 620.189819,482.890717 619.523193,482.463776 
	C615.128479,479.648682 610.385925,479.631714 605.500000,480.500000 
"/>
<path fill="none" opacity="1.000000" stroke="#000000" stroke-linecap="round" stroke-linejoin="round" stroke-width="11.000000"
	d="
M428.500000,407.500000 
	C426.712646,401.333344 428.344360,395.169983 428.368805,388.999481 
	C428.592041,332.667023 428.261993,276.331329 428.735138,220.001968 
	C428.813660,210.654633 427.493408,201.304855 428.571930,192.008347 
	C429.566040,183.439728 428.639404,174.957535 427.881500,166.510635 
	C426.909729,155.681076 419.734650,149.432693 408.999573,149.011185 
	C407.002625,148.932770 405.000000,149.000000 403.000000,149.000000 
	C327.333344,149.000000 251.666672,148.996506 176.000000,149.004700 
	C167.149612,149.005661 159.918060,151.851807 155.986511,160.493866 
	C154.449905,163.871536 154.576355,167.506332 154.570526,171.000122 
	C154.471954,229.999954 154.473389,289.000031 154.521561,347.999969 
	C154.531677,360.375519 162.335083,369.259155 174.001968,370.481140 
	C176.456177,370.738190 178.384644,368.704773 181.006927,368.912628 
	C185.147583,369.240814 189.333328,369.000000 193.500000,369.000000 
	C253.666672,369.000000 313.833801,369.105286 373.999329,368.845306 
	C380.366058,368.817810 385.828522,369.963470 390.463531,374.041443 
	C399.048218,381.594391 408.585999,387.894135 417.443665,395.069550 
	C420.063324,397.191681 422.786285,398.257111 426.000000,398.500000 
"/>
<path fill="none" opacity="1.000000" stroke="#000000" stroke-linecap="round" stroke-linejoin="round" stroke-width="11.000000"
	d="
M612.500000,479.000000 
	C615.562500,460.401978 613.845215,441.663391 613.905640,422.999695 
	C614.138367,351.167114 614.001343,279.333344 613.998352,207.500000 
	C613.997925,198.249298 609.143188,190.643982 600.971802,187.575073 
	C599.164185,186.896210 597.000061,187.022141 595.000000,187.021118 
	C543.166687,186.994431 491.333344,187.008301 439.500000,186.978638 
	C436.499908,186.976913 433.500000,186.666672 430.500000,186.500000 
"/>
<path fill="none" opacity="1.000000" stroke="#000000" stroke-linecap="round" stroke-linejoin="round" stroke-width="12.000000"
	d="
M618.000000,502.500000 
	C557.333313,502.500000 496.666656,502.513519 436.000000,502.478851 
	C430.021240,502.475433 424.489197,502.466187 422.342072,509.954712 
	C421.410095,513.205322 417.498566,513.404968 414.499268,513.442627 
	C403.167725,513.585266 391.832916,513.556091 380.500244,513.468445 
	C376.729187,513.439270 373.747040,512.102600 372.448883,508.016235 
	C371.178497,504.017212 368.197144,502.907562 363.999817,502.916138 
	C303.833435,503.038879 243.666672,503.006500 183.500015,502.966064 
	C181.843521,502.964935 180.077469,503.558685 178.500000,502.500000 
"/>
<path fill="none" opacity="1.000000" stroke="#000000" stroke-linecap="round" stroke-linejoin="round" stroke-width="11.000000"
	d="
M371.000000,433.250000 
	C369.500000,433.166687 368.000031,433.010986 366.500000,433.010529 
	C321.833344,432.997589 277.166656,432.997559 232.500000,433.010529 
	C230.999985,433.010956 229.500000,433.166656 228.000000,433.250000 
"/>
<path fill="none" opacity="1.000000" stroke="#000000" stroke-linecap="round" stroke-linejoin="round" stroke-width="12.000000"
	d="
M371.000000,402.750000 
	C369.333344,402.666656 367.666687,402.511047 366.000000,402.510559 
	C321.666656,402.497284 277.333344,402.497314 233.000000,402.510559 
	C231.333313,402.511078 229.666672,402.666687 228.000000,402.750000 
"/>
<path fill="none" opacity="1.000000" stroke="#000000" stroke-linecap="round" stroke-linejoin="round" stroke-width="10.000000"
	d="
M305.750000,204.500000 
	C306.594116,210.070801 303.839417,214.907639 302.444824,219.984848 
	C296.575348,241.354019 290.488617,262.663452 284.505280,284.001495 
	C281.890594,293.326050 279.333344,302.666656 276.750000,312.000000 
"/>
<path fill="none" opacity="1.000000" stroke="#000000" stroke-linecap="round" stroke-linejoin="round" stroke-width="12.000000"
	d="
M453.000000,272.750000 
	C454.452484,271.811432 456.012756,272.543274 457.500061,272.540863 
	C490.166626,272.487335 522.833313,272.500000 555.500000,272.500000 
	C556.833313,272.500000 558.166687,272.500000 559.500000,272.500000 
"/>
<path fill="none" opacity="1.000000" stroke="#000000" stroke-linecap="round" stroke-linejoin="round" stroke-width="11.000000"
	d="
M560.000000,303.250000 
	C558.166687,303.166687 556.333374,303.011475 554.500000,303.010651 
	C521.000000,302.996063 487.500000,303.000000 454.000000,303.000000 
"/>
<path fill="none" opacity="1.000000" stroke="#000000" stroke-linecap="round" stroke-linejoin="round" stroke-width="11.000000"
	d="
M559.000000,242.000000 
	C524.000000,242.000000 489.000000,242.000000 454.000000,242.000000 
"/>
<path fill="none" opacity="1.000000" stroke="#000000" stroke-linecap="round" stroke-linejoin="round" stroke-width="11.000000"
	d="
M559.000000,334.000000 
	C524.000000,334.000000 489.000000,334.000000 454.000000,334.000000 
"/>
<path fill="none" opacity="1.000000" stroke="#000000" stroke-linecap="round" stroke-linejoin="round" stroke-width="10.000000"
	d="
M239.500000,226.000000 
	C226.376846,235.281906 213.499161,244.893112 201.021408,255.026367 
	C197.220261,258.113312 197.299637,259.608521 200.487045,263.012115 
	C204.282379,267.064850 209.221756,269.592255 213.521683,272.972412 
	C221.278336,279.069977 229.128983,285.050446 237.032761,290.956146 
	C238.558136,292.095917 240.124207,293.871552 242.500000,292.750000 
"/>
<path fill="none" opacity="1.000000" stroke="#000000" stroke-linecap="round" stroke-linejoin="round" stroke-width="10.000000"
	d="
M339.500000,225.500000 
	C341.937042,225.287949 343.982544,225.857132 346.042175,227.445328 
	C356.785126,235.729172 367.687042,243.806564 378.481415,252.024429 
	C380.445312,253.519592 382.766113,255.019211 383.846252,257.080566 
	C385.156952,259.581940 386.928864,259.475616 389.000000,259.500000 
"/>
<path fill="none" opacity="1.000000" stroke="#000000" stroke-linecap="round" stroke-linejoin="round" stroke-width="10.000000"
	d="
M385.000000,259.500000 
	C383.358582,264.191925 378.888184,266.183502 375.413025,268.888245 
	C366.000092,276.214264 356.103088,282.915436 346.565552,290.087158 
	C345.058197,291.220612 342.590942,292.230316 343.000000,295.000000 
"/>
</svg>