<svg version="1.1" id="Layer_1" xmlns="http://www.w3.org/2000/svg" xmlns:xlink="http://www.w3.org/1999/xlink" x="0px" y="0px"
	 width="100%" viewBox="0 0 1920 1920" enable-background="new 0 0 1920 1920" xml:space="preserve">
<path fill="#FFFFFF" opacity="1.000000" stroke="none" 
	d="
M1214.000000,1921.000000 
	C810.833313,1921.000000 408.166656,1920.993774 5.500023,1921.092896 
	C1.750936,1921.093750 0.906699,1920.249023 0.907267,1916.500000 
	C1.003830,1279.500000 1.003830,642.500000 0.907267,5.500014 
	C0.906699,1.750999 1.750996,0.906695 5.500013,0.907264 
	C642.500000,1.003858 1279.500000,1.003859 1916.500000,0.907264 
	C1920.249023,0.906695 1921.093262,1.750996 1921.092651,5.500013 
	C1920.996094,642.500000 1920.996094,1279.500000 1921.092651,1916.500000 
	C1921.093262,1920.249023 1920.249146,1921.094971 1916.500000,1921.093384 
	C1682.500000,1920.989380 1448.500000,1921.000000 1214.000000,1921.000000 
z"/>
<path fill="#000000" opacity="1.000000" stroke="none" 
	d="
M785.000854,1544.000366 
	C785.334412,1569.147461 785.652832,1593.794556 786.013000,1618.441162 
	C786.091614,1623.821899 785.508362,1629.133789 783.643677,1634.153198 
	C778.684021,1647.504028 768.837891,1654.561523 754.768616,1656.006592 
	C744.352478,1657.076294 734.749451,1654.097534 725.125916,1650.627686 
	C632.332825,1617.170410 549.720886,1566.942871 478.149200,1499.116211 
	C371.688416,1398.225830 302.408539,1275.946167 270.373566,1132.779053 
	C256.593079,1071.192749 251.599136,1008.734070 254.494858,945.708862 
	C259.003418,847.580078 282.323181,754.128235 325.158417,665.655518 
	C358.640472,596.500977 402.096680,534.293091 455.814178,479.328369 
	C549.234070,383.739532 660.697510,319.286713 790.251038,286.394531 
	C840.117798,273.733948 890.864624,267.119568 942.337891,265.767792 
	C1057.088623,262.754242 1166.151855,286.186737 1269.357788,336.253052 
	C1337.550659,369.334198 1398.680908,412.657532 1453.018066,465.576324 
	C1509.689087,520.768066 1555.901001,583.649353 1591.671509,654.134644 
	C1623.720947,717.287903 1645.646729,783.900024 1657.733521,853.682678 
	C1666.629883,905.045288 1669.838989,956.832642 1667.525024,1008.897644 
	C1662.016235,1132.845947 1627.438232,1248.089844 1562.227173,1353.717041 
	C1493.885010,1464.415527 1401.918945,1550.167969 1286.869995,1611.042725 
	C1255.086670,1627.859863 1222.072754,1641.845825 1188.118896,1653.646118 
	C1180.394165,1656.331055 1172.422729,1656.880005 1164.466797,1655.658691 
	C1147.705811,1653.085205 1136.253662,1640.192383 1136.133423,1622.718750 
	C1135.949097,1595.904785 1136.559692,1569.085449 1136.798950,1542.268066 
	C1136.907471,1530.104492 1136.979004,1517.939941 1136.989868,1505.775879 
	C1137.016602,1475.781250 1137.541382,1445.774292 1136.858521,1415.795166 
	C1136.035767,1379.673950 1128.746216,1345.121582 1108.256592,1314.414307 
	C1102.981323,1306.508301 1096.637207,1299.527588 1089.344116,1292.534668 
	C1102.512085,1290.642212 1115.107300,1289.019043 1127.638428,1286.997681 
	C1171.999268,1279.842285 1215.107300,1268.481934 1255.495361,1248.216064 
	C1320.523926,1215.586426 1364.584106,1164.519775 1388.892944,1096.177612 
	C1402.607788,1057.619385 1409.073242,1017.663635 1411.400269,976.947205 
	C1413.286133,943.948608 1413.016479,911.090454 1406.220459,878.506653 
	C1396.272949,830.814026 1374.919189,788.985535 1342.576660,752.675537 
	C1340.862305,750.750793 1339.803223,749.310486 1340.902344,746.249146 
	C1354.236328,709.113647 1356.672729,670.891357 1351.593994,632.016907 
	C1348.585815,608.991272 1342.562622,586.723206 1334.529907,564.951599 
	C1333.234497,561.440552 1331.370605,560.150330 1327.761230,559.765991 
	C1308.326172,557.696472 1289.616577,561.377197 1271.145874,566.718567 
	C1230.499634,578.472839 1193.774780,598.452576 1158.273438,620.949158 
	C1155.465332,622.728638 1152.279663,624.113098 1149.921143,626.363953 
	C1142.486572,633.459106 1134.683228,633.267578 1125.035767,630.768372 
	C1075.375977,617.903931 1024.769531,611.493958 973.466858,610.530762 
	C910.661682,609.351746 848.957886,617.171082 788.238342,633.043091 
	C785.560730,633.742981 783.662781,633.395447 781.406189,631.876160 
	C747.960815,609.358948 713.315247,589.013184 675.506531,574.582336 
	C652.076172,565.639465 628.122131,558.931946 602.720398,559.182312 
	C590.691223,559.300903 590.688049,559.288757 586.593994,570.666260 
	C574.119263,605.334351 567.810242,641.036743 569.242676,677.917725 
	C570.138000,700.970337 573.753479,723.610962 581.844727,745.345886 
	C582.955994,748.330872 582.687561,750.264832 580.497498,752.780396 
	C550.382568,787.370728 529.357849,826.745361 518.639282,871.462402 
	C512.156494,898.508179 510.149017,925.957642 510.776764,953.715210 
	C511.771088,997.680725 516.827576,1041.008789 529.849121,1083.180054 
	C543.159241,1126.285889 564.206604,1164.966064 595.997620,1197.312866 
	C624.686707,1226.503540 658.926270,1247.207275 696.915466,1261.939331 
	C737.364380,1277.625366 779.505127,1286.078857 822.442566,1291.074341 
	C825.582520,1291.439575 828.717285,1291.850220 832.527710,1292.323486 
	C829.936951,1295.067505 827.541870,1297.479126 825.285217,1300.014038 
	C805.659058,1322.059326 794.815491,1348.305054 790.332397,1377.031860 
	C788.871521,1386.392700 784.789917,1390.283936 776.467529,1393.322632 
	C748.899780,1403.388916 720.868042,1409.266113 691.381042,1406.173584 
	C657.019409,1402.569946 628.778687,1387.184814 605.645691,1361.855103 
	C596.285156,1351.605713 588.636963,1340.157715 581.321411,1328.405396 
	C562.029602,1297.413330 536.560669,1273.598022 501.417358,1261.600464 
	C486.433258,1256.484985 471.095856,1254.055542 455.286011,1258.054443 
	C439.373291,1262.079224 436.810455,1270.040649 447.695374,1282.335693 
	C453.483826,1288.874268 460.234344,1294.457153 467.715485,1298.737183 
	C490.924408,1312.015015 507.782471,1331.431519 522.082275,1353.438843 
	C531.894653,1368.539917 539.668884,1384.690308 546.182617,1401.459839 
	C558.244141,1432.512085 579.576050,1455.500610 608.023132,1472.180908 
	C635.196716,1488.114624 664.955017,1494.832275 696.113159,1496.451660 
	C724.067078,1497.904663 751.610413,1494.753906 778.960876,1489.313232 
	C784.824585,1488.146851 784.800903,1488.096802 784.820129,1494.015991 
	C784.873657,1510.510742 784.939636,1527.005493 785.000854,1544.000366 
z"/>
</svg>