<svg version="1.1" id="Layer_1" xmlns="http://www.w3.org/2000/svg" xmlns:xlink="http://www.w3.org/1999/xlink" x="0px" y="0px"
	 width="100%" viewBox="0 0 464 432" enable-background="new 0 0 464 432" xml:space="preserve">
<path fill="#000000" opacity="1.000000" stroke="none" 
	d="
M154.332306,211.649933 
	C163.273407,195.443176 172.030380,179.564117 180.590302,163.579575 
	C182.633331,159.764481 184.407349,158.319107 189.091797,160.319656 
	C198.068130,164.153107 207.467117,166.995728 216.685745,170.263519 
	C221.792511,172.073746 226.137802,175.151291 230.200195,178.631760 
	C231.886627,180.076599 233.344284,181.085724 235.276901,179.049728 
	C242.232864,171.721695 251.840393,169.467712 260.752533,165.950607 
	C266.457520,163.699173 272.411774,162.078705 278.113434,159.819748 
	C281.221924,158.588181 282.871979,159.063354 284.492310,162.102417 
	C292.628448,177.362381 300.993744,192.500000 309.215240,207.714798 
	C310.751678,210.558167 311.976440,213.017349 316.113525,212.965469 
	C320.153046,212.914841 322.454254,211.624573 324.314819,208.063293 
	C332.172241,193.023483 340.364105,178.158401 348.219452,163.117538 
	C350.316345,159.102585 352.518738,157.993164 356.938660,159.802902 
	C365.680908,163.382385 374.668732,166.360733 383.547272,169.608795 
	C399.608521,175.484543 408.145844,187.492096 411.301605,203.823792 
	C415.568604,225.906128 414.036987,248.256836 414.409882,270.524384 
	C414.480835,274.760132 412.533752,275.419678 408.946381,275.408661 
	C377.458557,275.312347 345.970306,275.340393 314.482208,275.331726 
	C312.175079,275.331085 309.867920,275.331635 306.400208,275.331635 
	C320.873108,298.665894 323.995544,322.729492 314.516052,347.757355 
	C307.999115,364.963501 296.499847,378.337128 280.633026,387.763672 
	C251.054459,405.336426 214.469849,402.500916 187.194626,378.461517 
	C165.691086,359.509033 148.827744,320.681641 173.718109,276.758636 
	C171.762985,275.458130 169.554672,276.017059 167.523911,276.014038 
	C131.370956,275.959930 95.217918,275.970215 59.064915,275.945862 
	C51.664127,275.940857 51.657318,275.902039 51.653404,268.514557 
	C51.648640,259.517944 51.676819,250.521286 51.654694,241.524734 
	C51.622704,228.516174 53.006416,215.509415 55.386986,202.872757 
	C58.302578,187.396057 67.467690,175.649414 82.966225,170.002594 
	C92.001556,166.710632 101.218498,163.861099 110.062744,160.123886 
	C114.588188,158.211594 116.353241,159.872772 118.217041,163.412994 
	C125.805748,177.827499 133.541382,192.164627 141.140533,206.573700 
	C144.849472,213.606430 146.169907,214.233017 154.332306,211.649933 
M177.753403,289.278503 
	C170.953857,305.022522 169.537018,321.041107 173.827301,337.842438 
	C182.903000,373.383972 222.606232,397.017578 260.752502,385.176575 
	C297.155334,373.876831 318.303131,333.825806 305.159943,295.796356 
	C294.614014,265.282013 259.253357,243.990555 225.712402,251.814316 
	C203.970901,256.885742 188.325653,269.037231 177.753403,289.278503 
M204.663818,249.072937 
	C213.798767,243.953766 223.901138,241.994934 234.040497,240.286331 
	C237.438736,239.713654 238.261459,237.868561 237.475937,235.060699 
	C234.805466,225.514999 235.921112,215.556396 234.041229,205.889221 
	C232.312286,196.998352 229.090729,189.171310 221.396667,184.131119 
	C211.559555,177.687088 200.041473,175.370270 188.857559,171.391190 
	C181.951691,184.068893 174.228058,195.889740 168.902603,208.706985 
	C163.873184,220.811768 156.478012,225.375961 143.837769,223.431870 
	C140.135345,222.862427 137.924088,221.982742 136.130051,218.560883 
	C128.485687,203.980301 120.483139,189.587952 112.727692,175.064743 
	C111.340897,172.467789 109.876480,171.253342 106.841774,172.388916 
	C98.912910,175.355881 90.819763,177.906418 82.985138,181.096970 
	C72.617790,185.318924 67.165924,194.060715 65.526573,204.430420 
	C63.403896,217.857422 62.451153,231.500977 61.638668,245.089813 
	C61.248028,251.623230 59.548130,258.171844 60.480324,264.479919 
	C62.226803,265.558777 63.577576,265.094177 64.881729,265.096191 
	C103.206139,265.155579 141.530701,265.170624 179.854614,265.336182 
	C182.325577,265.346863 183.968948,264.541931 185.528168,262.923584 
	C190.899292,257.348724 197.234543,253.085495 204.663818,249.072937 
M332.427551,265.118347 
	C354.738892,265.776398 377.048920,265.919769 399.361603,265.114166 
	C405.813629,264.881165 406.071838,264.825714 405.807770,258.208710 
	C405.655518,254.392273 405.047791,250.596344 404.750092,246.782990 
	C403.805359,234.680344 403.147247,222.550064 401.936493,210.474747 
	C400.358826,194.740311 393.058777,183.229050 377.102295,178.440384 
	C371.549896,176.774048 366.099518,174.745499 360.667114,172.709991 
	C357.259979,171.433334 355.216034,172.275558 353.493134,175.580643 
	C347.727661,186.640549 341.691254,197.558960 335.789520,208.548172 
	C327.809479,223.407288 327.821106,223.277863 311.029388,223.360596 
	C307.103851,223.379913 304.989288,221.979340 303.235382,218.659561 
	C295.933441,204.838272 288.438324,191.119034 281.017059,177.360733 
	C277.670105,171.155792 277.682800,171.179825 270.833435,173.703812 
	C268.190369,174.677811 265.444336,175.382172 262.830322,176.423111 
	C255.476593,179.351562 247.342407,180.722763 241.643677,187.004913 
	C240.147232,188.654556 238.576843,190.161255 239.743347,192.666397 
	C245.515762,205.063232 245.330017,218.462494 246.256439,231.667999 
	C246.419556,233.993164 246.363861,236.319168 247.108856,238.579056 
	C247.752716,240.532166 248.917358,241.541855 251.054077,241.758362 
	C267.732239,243.448273 281.785919,250.831833 293.928436,262.047699 
	C296.348755,264.283295 298.778137,265.145752 301.960327,265.111359 
	C311.787537,265.005127 321.616913,265.101013 332.427551,265.118347 
z"/>
<path fill="#000000" opacity="1.000000" stroke="none" 
	d="
M195.735596,109.478012 
	C191.462646,137.914017 164.048325,156.374557 137.242950,148.866196 
	C115.888580,142.884705 100.017715,121.794243 103.468643,97.362434 
	C106.940468,72.782677 128.459442,57.178585 149.064285,56.995583 
	C174.568787,56.769066 195.564056,77.639847 195.949615,103.546997 
	C195.976868,105.377289 195.842651,107.209976 195.735596,109.478012 
M185.320969,99.227470 
	C182.588470,76.834091 162.148132,64.576340 143.690613,67.803413 
	C125.242950,71.028770 110.667320,87.350601 113.939598,109.761879 
	C117.208946,132.153107 141.180435,145.658508 161.954742,137.694077 
	C178.377472,131.397934 186.570557,117.831551 185.320969,99.227470 
z"/>
<path fill="#000000" opacity="1.000000" stroke="none" 
	d="
M351.488464,134.474319 
	C338.215363,148.326569 322.413971,153.933365 304.197815,148.702377 
	C287.022461,143.770294 275.855133,132.003174 271.166443,114.478149 
	C265.071198,91.695869 280.218414,65.947372 303.093384,58.978230 
	C327.691742,51.484035 354.846863,66.033318 361.736694,92.278786 
	C365.716736,107.439896 362.313049,121.961739 351.488464,134.474319 
M288.751068,80.275490 
	C271.569794,101.055199 281.801117,134.457031 309.978729,139.190964 
	C324.461365,141.624084 336.459900,137.318863 345.244568,125.802940 
	C354.843079,113.220169 355.432678,99.208160 347.806824,85.589180 
	C335.612396,63.811314 307.019531,61.195423 288.751068,80.275490 
z"/>
<path fill="#000000" opacity="1.000000" stroke="none" 
	d="
M239.422424,309.459412 
	C243.691864,300.772888 247.831512,292.438812 251.899246,284.069763 
	C253.431213,280.917908 255.027771,278.693573 259.166962,280.653534 
	C263.359741,282.638855 263.086700,285.042358 261.280365,288.645508 
	C250.192932,310.762238 239.229156,332.941498 228.349640,355.161346 
	C226.666855,358.598206 225.119797,360.795837 220.879807,358.540253 
	C216.841064,356.391663 217.247726,353.874268 219.028107,350.378601 
	C225.887756,336.909973 232.536591,323.333954 239.422424,309.459412 
z"/>
<path fill="#000000" opacity="1.000000" stroke="none" 
	d="
M211.248917,340.290802 
	C209.207001,342.389038 207.562195,342.036224 205.832611,340.379242 
	C199.576172,334.385437 193.275574,328.437714 186.992310,322.471863 
	C185.235947,320.804260 184.202789,318.962097 186.328735,316.920959 
	C193.518555,310.018005 200.764496,303.173462 207.856934,296.432068 
	C208.860397,296.866455 209.378983,296.971252 209.743286,297.266418 
	C216.279602,302.562469 216.217468,302.636017 210.424835,308.469757 
	C206.916473,312.003021 203.650192,315.776703 200.112274,319.619293 
	C203.549561,323.147339 207.210571,327.419861 211.414322,331.066711 
	C215.187119,334.339691 215.841476,336.997437 211.248917,340.290802 
z"/>
<path fill="#000000" opacity="1.000000" stroke="none" 
	d="
M269.597778,330.591370 
	C273.467529,326.940155 277.087036,323.540314 281.578583,319.321320 
	C276.631775,314.671997 272.402740,310.490631 267.938354,306.577820 
	C265.200348,304.178101 265.011169,302.341003 267.685669,299.668976 
	C270.251221,297.105835 272.200531,296.240051 275.123627,299.171936 
	C280.878693,304.944336 286.798737,310.559875 292.811859,316.064117 
	C295.677216,318.686951 295.176147,320.523407 292.518677,322.933258 
	C287.096405,327.850281 281.910492,333.028381 276.641998,338.114288 
	C274.139252,340.530365 272.230774,343.481171 268.123444,339.565765 
	C263.856293,335.497986 266.536316,333.395630 269.597778,330.591370 
z"/>
</svg>