<svg version="1.1" id="Layer_1" xmlns="http://www.w3.org/2000/svg" xmlns:xlink="http://www.w3.org/1999/xlink" x="0px" y="0px"
	 width="100%" viewBox="0 0 368 400" enable-background="new 0 0 368 400" xml:space="preserve">
<path fill="#000000" opacity="1.000000" stroke="none" 
	d="
M280.466858,182.248260 
	C283.989960,184.919937 286.556305,184.166306 289.508667,181.538330 
	C294.954071,176.691238 295.454926,176.880417 300.542328,181.899948 
	C303.507660,184.825729 306.377533,187.850891 309.401245,190.714264 
	C312.810425,193.942673 313.489044,197.514618 309.754669,200.552643 
	C304.461487,204.858780 308.404785,208.787094 309.485840,212.988510 
	C310.540375,217.086746 313.732330,216.564606 316.644653,216.716568 
	C321.132599,216.950760 323.289551,219.239410 323.234039,223.735611 
	C323.178436,228.234528 323.027008,232.744476 323.262024,237.231537 
	C323.530243,242.351730 320.951660,244.459641 316.243042,244.998199 
	C311.289398,245.564758 306.575195,250.794510 306.636322,255.546204 
	C306.666016,257.852814 308.769104,258.800354 310.095093,260.209717 
	C314.065735,264.429993 314.171753,266.179626 310.125488,270.264282 
	C307.078796,273.339874 303.858246,276.244110 300.696320,279.204559 
	C296.496399,283.136810 294.805939,283.235931 290.500916,279.418121 
	C288.289612,277.457123 286.342499,275.568787 283.129242,277.599640 
	C279.750488,279.735138 274.631073,279.608734 275.070648,285.992981 
	C275.452545,291.540161 273.118622,293.238983 267.418884,293.291992 
	C263.252960,293.330719 259.086243,293.320190 254.920135,293.291534 
	C248.840988,293.249786 247.230423,292.247894 247.130569,286.233429 
	C247.036133,280.546783 243.840576,279.328674 239.081161,278.690796 
	C237.301620,284.738953 238.561569,290.750244 238.721909,296.581909 
	C239.049911,308.512512 231.017883,315.260315 219.636810,315.213440 
	C175.974899,315.033630 132.311813,315.158783 88.649239,315.115845 
	C75.652504,315.103088 69.748795,309.122803 69.746712,296.112671 
	C69.736061,229.618805 69.738716,163.124939 69.757874,96.631081 
	C69.761505,84.043137 75.922165,77.893066 88.388916,77.885056 
	C93.221748,77.881943 98.055328,77.816368 102.887115,77.883614 
	C105.479263,77.919693 106.972893,77.006256 107.132782,74.221512 
	C107.401329,69.544060 110.434128,68.056496 114.608116,68.025749 
	C120.773933,67.980331 126.939926,67.907982 133.105637,67.924080 
	C135.476944,67.930275 136.914764,67.109329 138.252594,64.910759 
	C146.209427,51.834652 162.655563,52.012547 170.163559,65.240562 
	C171.511795,67.615936 173.265060,67.936920 175.502029,67.940353 
	C181.334717,67.949310 187.167694,68.017014 192.999924,67.973801 
	C197.156860,67.943008 200.221161,69.330750 200.905746,73.830467 
	C201.298203,76.410019 202.909225,76.979324 205.156937,76.970573 
	C209.989548,76.951752 214.822433,77.012077 219.655228,77.033546 
	C231.223648,77.084930 238.546417,84.735107 238.368637,96.243729 
	C237.956848,122.901497 238.233353,149.570099 238.277771,176.234238 
	C238.280991,178.163589 237.714859,180.223007 238.971695,182.003845 
	C245.946564,181.384171 246.269287,181.059418 246.521469,174.473770 
	C246.745514,168.622986 248.188934,167.107224 254.015350,166.966919 
	C258.345642,166.862610 262.681427,166.899078 267.013184,166.969559 
	C271.633423,167.044678 274.440674,169.379807 274.026276,174.085876 
	C273.600800,178.917328 275.785614,181.185150 280.466858,182.248260 
M79.264725,259.499969 
	C79.265350,271.329895 79.257286,283.159821 79.269585,294.989746 
	C79.278107,303.183044 80.597710,304.642914 88.590744,305.176178 
	C91.745880,305.386688 94.911263,305.549927 98.072113,305.552155 
	C135.895645,305.579041 173.719177,305.572632 211.542725,305.571259 
	C214.708374,305.571136 217.883102,305.690308 221.037323,305.493164 
	C224.860687,305.254181 228.137955,303.616364 228.449631,299.462738 
	C228.856171,294.045013 228.549149,288.573730 228.549149,283.224487 
	C222.980850,282.193298 222.986206,282.188110 218.906357,277.988800 
	C216.700958,275.718811 214.448166,273.494507 212.261642,271.206665 
	C207.880371,266.622406 207.379990,264.777588 211.908554,260.243042 
	C216.434555,255.711075 212.401825,252.440979 211.540573,248.608414 
	C210.752579,245.101883 208.088150,245.232452 205.358688,245.009506 
	C199.367020,244.520081 197.848770,242.836548 197.728058,236.808655 
	C197.641342,232.478027 197.700272,228.144562 197.686981,223.812378 
	C197.673355,219.368576 199.918930,216.425751 204.300858,216.892517 
	C211.288269,217.636841 211.506760,212.002106 213.800491,208.107697 
	C216.039291,204.306488 212.599609,202.740936 211.010849,200.486099 
	C209.414978,198.221176 207.520325,195.672394 209.712769,193.282822 
	C214.734497,187.809616 219.150391,181.446136 226.337097,178.539536 
	C228.663086,177.598785 228.861008,176.367477 228.860367,174.461304 
	C228.851517,147.968170 228.890091,121.474937 228.826523,94.981949 
	C228.813995,89.760895 226.446655,87.517761 221.082336,87.318604 
	C217.421570,87.182686 213.751785,87.269012 210.086197,87.287392 
	C200.230164,87.336815 201.252396,86.407455 201.181549,96.105591 
	C201.131653,102.934258 199.802063,104.286385 192.969437,104.291374 
	C168.809021,104.309029 144.648575,104.297569 120.488136,104.296997 
	C107.791832,104.296692 107.685287,104.301468 107.101700,91.670547 
	C106.937920,88.125618 105.455940,87.037865 102.164566,87.161728 
	C97.838226,87.324539 93.501564,87.206505 89.169395,87.222641 
	C80.701721,87.254173 79.277321,88.655891 79.276108,97.041763 
	C79.268341,150.861160 79.268097,204.680542 79.264725,259.499969 
M302.227570,238.956345 
	C303.572693,236.022598 305.981537,234.826920 309.074432,234.904556 
	C312.087463,234.980194 313.673431,233.959473 313.656921,230.581345 
	C313.640808,227.275436 312.421326,225.302277 309.091583,225.483490 
	C304.260498,225.746429 302.190887,223.203400 301.269348,218.910995 
	C300.854218,216.977386 300.377747,214.886002 299.296295,213.296860 
	C295.246735,207.346390 293.332550,201.679443 300.803345,196.575684 
	C298.653503,194.134766 297.192596,191.952087 294.498016,190.807816 
	C293.659698,191.455002 292.752289,191.941422 292.130615,192.671219 
	C288.837921,196.536652 285.539490,196.882584 281.355530,193.682480 
	C278.912048,191.813599 275.776367,190.299149 272.767242,189.841934 
	C267.468201,189.036774 265.122559,186.251541 265.045654,181.218643 
	C264.997955,178.095734 263.371887,177.374908 260.572479,177.336288 
	C257.485229,177.293716 256.534760,178.524658 256.584717,181.511856 
	C256.656677,185.812286 254.811096,188.598694 250.109299,189.537842 
	C246.395218,190.279678 242.769394,191.878937 239.667618,194.157181 
	C236.463364,196.510681 233.731094,196.704681 230.889618,193.671875 
	C228.929520,191.579803 226.859879,190.300812 224.102112,192.933838 
	C221.376099,195.536530 221.791245,197.658173 224.203888,200.080460 
	C226.302689,202.187683 227.900146,204.606750 225.738113,207.576538 
	C222.936600,211.424683 221.456161,215.872696 220.112518,220.306580 
	C219.031555,223.873672 217.275299,225.695251 213.413986,225.427597 
	C210.223206,225.206436 209.079529,227.061920 209.061661,230.116638 
	C209.044724,233.013260 209.596207,234.986237 213.095444,234.942123 
	C216.735382,234.896240 218.708023,236.937042 219.917206,240.362549 
	C221.294388,244.264023 222.311996,248.368652 224.715439,251.846329 
	C227.161163,255.385162 227.145065,258.665863 223.814529,261.615631 
	C221.210876,263.921570 221.663208,265.749603 223.980408,268.187805 
	C226.589142,270.932800 228.411682,270.308014 230.496490,267.895905 
	C233.078796,264.908173 235.980438,264.459930 239.310883,266.736115 
	C242.647522,269.016510 246.389969,270.467865 250.294266,271.365753 
	C254.217133,272.267883 256.416412,274.332764 256.530914,278.532684 
	C256.601013,281.102753 257.610443,282.894135 260.755676,282.912872 
	C263.749878,282.930695 264.943298,281.682465 265.091766,278.812317 
	C265.310394,274.585876 267.716309,272.135132 271.789276,271.263367 
	C275.584198,270.451111 278.973541,268.725800 282.309875,266.812836 
	C284.891876,265.332428 287.534882,264.789185 290.248169,266.769073 
	C295.835846,270.846436 295.861969,270.810638 300.216827,264.476471 
	C299.807129,263.873016 299.476379,263.055725 298.879028,262.559021 
	C294.619476,259.017181 294.467010,255.155640 297.608124,250.772934 
	C299.970276,247.477097 301.075806,243.614853 302.227570,238.956345 
M121.001671,94.764755 
	C140.456604,94.775764 159.911636,94.831825 179.366425,94.783028 
	C193.994186,94.746330 191.415466,96.353317 191.823624,81.787895 
	C191.916534,78.472763 190.543350,77.328529 187.429535,77.402946 
	C181.790024,77.537720 176.147202,77.534569 170.505737,77.585701 
	C166.846161,77.618866 163.705002,76.515160 162.977814,72.548981 
	C162.068848,67.591324 158.713028,65.123116 154.387375,64.953552 
	C149.516739,64.762642 146.420837,68.199532 145.454086,72.857605 
	C144.684906,76.563766 142.400574,77.807228 139.145844,77.951508 
	C135.493912,78.113388 131.831299,78.040642 128.173279,78.056725 
	C116.248016,78.109154 116.263672,78.105721 117.128456,90.285362 
	C117.277634,92.386475 117.455765,94.348709 121.001671,94.764755 
z"/>
<path fill="#000000" opacity="1.000000" stroke="none" 
	d="
M200.997299,136.274445 
	C178.026672,136.270767 155.555527,136.267883 133.084396,136.261703 
	C131.752930,136.261337 130.419693,136.272919 129.090347,136.212097 
	C126.032257,136.072159 123.860947,134.541412 123.627182,131.476135 
	C123.397629,128.466232 125.579269,127.033607 128.318710,126.648865 
	C130.616898,126.326080 132.951355,126.111107 135.270081,126.108345 
	C160.060394,126.078751 184.850800,126.092247 209.641113,126.126709 
	C211.462280,126.129234 213.303909,126.258507 215.099350,126.552658 
	C218.104233,127.044952 220.026245,128.748123 219.709030,131.982513 
	C219.413971,134.990997 217.310242,136.192551 214.479538,136.225525 
	C210.152344,136.275955 205.824417,136.261459 200.997299,136.274445 
z"/>
<path fill="#000000" opacity="1.000000" stroke="none" 
	d="
M159.884232,163.120636 
	C176.993546,164.343018 193.612061,162.603912 210.236969,163.012955 
	C216.886505,163.176559 220.121796,164.793488 219.722778,168.502884 
	C219.083923,174.442001 214.238388,173.262115 210.444687,173.272232 
	C185.325974,173.339218 160.206970,173.297913 135.088058,173.291321 
	C133.590912,173.290924 132.093002,173.254303 130.596756,173.289520 
	C127.083595,173.372238 123.871048,172.366150 123.691551,168.466492 
	C123.515541,164.642807 126.795914,163.910889 129.979721,163.583679 
	C139.775406,162.577011 149.594147,163.311218 159.884232,163.120636 
z"/>
<path fill="#000000" opacity="1.000000" stroke="none" 
	d="
M166.000000,209.898529 
	C154.853516,209.893921 144.206879,209.918839 133.560684,209.861343 
	C131.410248,209.849747 129.240646,209.655289 127.117615,209.311874 
	C124.787186,208.934906 123.761024,207.226273 123.803329,205.006699 
	C123.846153,202.760315 125.069626,201.205505 127.327072,200.813065 
	C128.788055,200.559082 130.308609,200.592957 131.802536,200.591782 
	C151.764694,200.576141 171.726929,200.599884 191.688980,200.552078 
	C195.108200,200.543900 198.276047,200.721924 198.283417,205.242752 
	C198.290436,209.555222 194.972168,209.769333 191.950653,209.815796 
	C183.468674,209.946228 174.983765,209.884781 166.000000,209.898529 
z"/>
<path fill="#000000" opacity="1.000000" stroke="none" 
	d="
M148.000122,247.034317 
	C141.670425,247.031769 135.840652,247.016403 130.010941,247.031525 
	C126.670708,247.040176 123.702591,246.055206 123.584007,242.303726 
	C123.458504,238.333603 126.514671,237.673141 129.845108,237.680466 
	C147.500916,237.719299 165.156906,237.721527 182.812714,237.681854 
	C186.219498,237.674194 189.020630,238.594101 189.007996,242.471573 
	C188.995834,246.209167 185.959747,246.933151 182.978241,246.956924 
	C171.486038,247.048660 159.992874,247.018814 148.000122,247.034317 
z"/>
<path fill="#000000" opacity="1.000000" stroke="none" 
	d="
M158.980927,284.125366 
	C149.996078,284.113770 141.507904,284.103180 133.019730,284.090790 
	C132.021164,284.089325 131.019760,284.124084 130.024536,284.063110 
	C126.531830,283.849121 123.457069,282.594543 123.601387,278.638184 
	C123.737534,274.905396 126.910507,273.920471 130.119003,273.903381 
	C142.934021,273.835114 155.749573,273.870117 168.564926,273.869568 
	C168.897308,273.869568 169.230743,273.888916 169.561905,273.918945 
	C172.540298,274.189148 174.872787,275.485077 174.907074,278.712128 
	C174.943008,282.094391 172.670578,283.822968 169.459808,284.017761 
	C166.142441,284.218994 162.805817,284.103027 158.980927,284.125366 
z"/>
<path fill="#000000" opacity="1.000000" stroke="none" 
	d="
M119.837097,158.635361 
	C114.393074,164.271088 109.216515,169.672333 103.870979,174.900787 
	C100.371971,178.323151 97.018875,178.009064 94.288330,174.052078 
	C92.500977,171.461945 90.911484,168.700699 89.541664,165.867065 
	C88.269669,163.235779 87.558800,160.082291 90.439850,158.220108 
	C93.587975,156.185318 96.070061,157.990997 97.856117,160.895813 
	C98.532501,161.995880 99.382858,162.988953 100.300346,164.228638 
	C104.890388,161.018311 108.228226,156.853134 112.126427,153.312988 
	C113.947723,151.658981 115.871635,150.295486 118.328171,151.915588 
	C120.716805,153.490921 121.573883,155.630096 119.837097,158.635361 
z"/>
<path fill="#000000" opacity="1.000000" stroke="none" 
	d="
M93.586578,121.101898 
	C97.085884,122.238503 98.029373,125.421112 100.261330,127.792679 
	C104.081810,125.354698 106.905586,121.875313 110.192055,118.939812 
	C111.429138,117.834846 112.586342,116.567291 113.996910,115.746834 
	C116.109146,114.518242 118.246735,114.907936 119.830498,116.809120 
	C121.322624,118.600319 121.176552,120.587570 119.590370,122.237144 
	C114.054688,127.994095 108.555359,133.793884 102.816704,139.344238 
	C100.207336,141.867981 97.047874,141.403168 94.995415,138.545120 
	C92.681053,135.322372 90.490028,131.853241 89.103867,128.168320 
	C87.840439,124.809692 88.338928,121.380150 93.586578,121.101898 
z"/>
<path fill="#000000" opacity="1.000000" stroke="none" 
	d="
M111.394531,203.393219 
	C108.439568,206.344131 105.834129,209.154694 103.000961,211.713058 
	C99.543831,214.834854 96.369728,214.294464 94.003288,210.350479 
	C92.465714,207.787903 90.886826,205.230759 89.608582,202.537292 
	C88.263794,199.703629 87.590607,196.548996 90.877754,194.605774 
	C94.110718,192.694565 96.082413,195.021835 97.791306,197.484543 
	C98.441338,198.421295 99.221046,199.268051 100.141708,200.402298 
	C103.372513,198.966965 105.237602,196.132568 107.623131,193.953369 
	C109.216812,192.497513 110.691566,190.911667 112.281837,189.451874 
	C114.291672,187.606949 116.496017,186.502518 118.809082,188.896835 
	C121.089882,191.257736 120.621071,193.772552 118.603989,196.004120 
	C116.377243,198.467651 113.971107,200.769043 111.394531,203.393219 
z"/>
<path fill="#000000" opacity="1.000000" stroke="none" 
	d="
M118.259300,268.970520 
	C113.211815,274.098480 108.513672,279.045502 103.616554,283.787048 
	C99.433037,287.837708 96.587746,287.371765 93.676590,282.450317 
	C92.237831,280.018036 90.709854,277.617279 89.524971,275.061890 
	C88.291473,272.401581 87.588814,269.283875 90.562668,267.455627 
	C93.747391,265.497772 96.177185,267.287140 97.990181,270.182953 
	C98.661842,271.255829 99.114235,272.646667 102.076424,274.524109 
	C105.367058,270.574768 108.528610,266.506653 112.004570,262.727783 
	C113.661285,260.926697 115.963013,259.081482 118.526970,261.281158 
	C121.208878,263.582031 120.710960,266.224976 118.259300,268.970520 
z"/>
<path fill="#000000" opacity="1.000000" stroke="none" 
	d="
M88.848831,233.468399 
	C92.851242,228.582672 93.334869,228.740280 101.318726,237.974594 
	C104.168953,234.657150 106.888626,231.358231 109.767303,228.204437 
	C110.978958,226.876984 112.401901,225.636719 113.954849,224.754868 
	C115.657883,223.787781 117.558022,223.999573 119.001755,225.504578 
	C120.591354,227.161652 120.878319,229.373718 119.475708,230.980820 
	C113.793869,237.491135 107.745171,243.672913 101.199776,249.324417 
	C99.483192,250.806549 96.949318,250.563416 95.780563,248.820847 
	C92.701134,244.229568 88.402504,240.103790 88.848831,233.468399 
z"/>
<path fill="#000000" opacity="1.000000" stroke="none" 
	d="
M255.736328,199.247192 
	C271.331909,197.180099 286.482605,206.444656 291.064606,221.299667 
	C295.552338,235.848938 289.137573,251.654495 275.499390,258.633820 
	C264.288025,264.371216 252.890915,263.807739 242.429382,256.631531 
	C232.431152,249.773178 227.647430,239.646957 229.150436,227.795410 
	C231.078491,212.592468 240.203964,202.960281 255.736328,199.247192 
M275.859802,246.379242 
	C281.706329,239.910492 284.189911,232.619431 281.719330,223.923782 
	C278.328735,211.990021 265.131104,205.327393 253.123276,209.623993 
	C241.436981,213.805573 235.301422,227.980225 240.374588,239.076691 
	C246.858658,253.259232 262.347198,256.709473 275.859802,246.379242 
z"/>
<path fill="#000000" opacity="1.000000" stroke="none" 
	d="
M152.000015,80.975418 
	C159.982162,81.011406 167.464706,81.017433 174.946243,81.106644 
	C176.762894,81.128304 178.613113,81.253044 180.382355,81.634476 
	C182.894714,82.176094 184.761780,83.900345 184.684662,86.446800 
	C184.599197,89.268913 182.489334,90.900032 179.695541,91.071701 
	C176.381439,91.275337 173.048492,91.196556 169.723694,91.197990 
	C156.754379,91.203598 143.785019,91.168861 130.815811,91.203613 
	C127.401115,91.212761 124.035385,90.719452 123.762505,86.652657 
	C123.464058,82.204834 127.047142,81.275101 130.553574,81.176010 
	C137.532043,80.978798 144.517471,81.028412 152.000015,80.975418 
z"/>
</svg>