<svg version="1.1" id="Layer_1" xmlns="http://www.w3.org/2000/svg" xmlns:xlink="http://www.w3.org/1999/xlink" x="0px" y="0px"
	 width="100%" viewBox="0 0 736 656" enable-background="new 0 0 736 656" xml:space="preserve">
<path fill="#000000" opacity="1.000000" stroke="none" 
	d="
M362.617493,372.999878 
	C362.615356,326.506042 363.242188,280.499847 362.338196,234.523712 
	C361.903046,212.392181 378.253967,192.506729 404.469238,192.795563 
	C445.292175,193.245346 486.123657,192.918030 526.951538,192.910217 
	C533.634399,192.908936 533.638489,192.885651 533.653809,186.347153 
	C533.660461,183.514221 533.654785,180.681229 533.640015,177.848343 
	C533.606445,171.383316 533.602722,171.349915 526.888306,171.349380 
	C425.401855,171.341354 323.915405,171.372116 222.429108,171.249710 
	C217.673981,171.243973 215.806717,172.511551 216.199173,177.407990 
	C216.570724,182.043442 216.392288,186.738129 216.219406,191.398010 
	C216.029526,196.515625 212.698364,199.993423 208.296661,200.022018 
	C203.920776,200.050446 200.661148,196.528854 200.652298,191.299225 
	C200.613342,168.302734 200.277878,145.296799 200.813522,122.312080 
	C201.351212,99.239357 223.811707,77.977386 247.412094,77.755814 
	C273.073090,77.514893 298.738007,77.688835 324.401215,77.689186 
	C382.226807,77.689987 440.052429,77.683838 497.878021,77.703468 
	C527.835876,77.713646 549.236450,99.092834 549.267822,129.011215 
	C549.288086,148.341949 549.398865,167.674088 549.184875,187.002457 
	C549.134338,191.565186 550.468872,193.045410 555.118286,192.996689 
	C575.779785,192.780151 596.445557,192.824554 617.108826,192.942017 
	C637.512634,193.057999 652.990540,205.556213 656.735046,224.892273 
	C657.329956,227.964203 657.302917,231.186295 657.304199,234.339081 
	C657.332886,305.662872 657.330688,376.986694 657.321350,448.310486 
	C657.318359,471.215332 640.602478,488.029144 617.558960,488.138641 
	C596.895630,488.236847 576.229065,488.299957 555.569031,488.010468 
	C550.402832,487.938110 549.103455,489.598877 549.158813,494.572479 
	C549.405762,516.733459 549.380920,538.899414 549.238098,561.062195 
	C549.099060,582.632385 534.675232,601.789673 514.167847,607.647156 
	C508.756531,609.192871 503.182678,610.187561 497.452271,610.184570 
	C415.629913,610.141357 333.807495,610.177551 251.985107,610.142029 
	C226.119781,610.130798 206.388977,594.150330 201.203064,569.275146 
	C200.478882,565.801514 200.614944,562.307983 200.612076,558.821960 
	C200.581924,521.993591 200.598877,485.165192 200.605286,448.336792 
	C200.605469,447.337097 200.592377,446.334869 200.654953,445.338165 
	C200.934616,440.883392 203.217926,438.189117 207.724640,437.753082 
	C211.923340,437.346863 215.374008,440.195282 216.084106,444.646484 
	C216.370163,446.439667 216.265167,448.301910 216.266708,450.132751 
	C216.280945,467.130463 216.276932,484.128204 216.284164,501.125916 
	C216.286957,507.673584 216.293945,507.691193 222.885147,507.691681 
	C323.538361,507.699005 424.191559,507.701294 524.844788,507.704773 
	C526.177917,507.704834 527.519897,507.606384 528.842529,507.724182 
	C532.214600,508.024567 533.803589,506.691864 533.635132,503.170319 
	C533.476074,499.845245 533.368896,496.484528 533.670532,493.178894 
	C534.049744,489.023224 532.112793,488.095825 528.396606,488.111908 
	C505.566803,488.210938 482.736328,488.151855 459.906067,488.149231 
	C440.575317,488.147034 421.243744,488.261261 401.914062,488.119202 
	C382.802002,487.978790 367.679260,475.979980 363.311707,457.916901 
	C362.553558,454.781494 362.611328,451.635193 362.609314,448.479584 
	C362.593323,423.486359 362.610352,398.493134 362.617493,372.999878 
M451.500000,471.987549 
	C506.310852,471.990540 561.124146,471.703156 615.931152,472.162109 
	C633.878967,472.312378 641.909546,459.128326 641.844177,446.020294 
	C641.491028,375.217590 641.687866,304.412231 641.660828,233.607773 
	C641.655029,218.494675 632.467285,209.089996 617.506897,209.080353 
	C545.702881,209.034073 473.898804,209.035950 402.094818,209.099670 
	C387.202667,209.112885 378.281586,218.285263 378.277985,233.288254 
	C378.260925,304.759064 378.260345,376.229858 378.283386,447.700684 
	C378.288300,462.926910 387.229736,471.882904 402.519684,471.958160 
	C418.512787,472.036896 434.506531,471.983215 451.500000,471.987549 
M304.500000,593.957886 
	C368.127716,593.958801 431.755432,593.960876 495.383148,593.955811 
	C497.714325,593.955627 500.050018,593.966309 502.375946,593.835510 
	C517.457214,592.987671 530.603027,581.027771 532.796265,566.133118 
	C534.528748,554.366516 533.314514,542.523926 533.575562,530.718994 
	C533.738037,523.373291 533.588867,523.350281 526.205444,523.349915 
	C427.099426,523.345276 327.993408,523.346558 228.887375,523.346497 
	C226.222336,523.346497 223.546921,523.497070 220.894852,523.311951 
	C217.423920,523.069763 216.180252,524.499939 216.229080,527.952026 
	C216.372803,538.110474 216.254227,548.272217 216.285889,558.432617 
	C216.352325,579.749207 230.324448,593.852051 251.531845,593.932251 
	C268.854340,593.997803 286.177277,593.953369 304.500000,593.957886 
M286.500061,93.306480 
	C274.337006,93.311859 262.172607,93.203377 250.011261,93.350754 
	C233.971863,93.545128 220.850204,104.113869 217.258957,119.748215 
	C215.107346,129.115143 216.592697,138.668396 216.324326,148.132690 
	C216.110672,155.666885 216.282822,155.679199 223.909225,155.679550 
	C324.879425,155.684052 425.849640,155.686340 526.819824,155.689056 
	C527.652893,155.689087 528.492859,155.617889 529.317871,155.699097 
	C532.569458,156.019150 533.759705,154.567078 533.692017,151.340271 
	C533.545288,144.345474 533.667236,137.345367 533.651489,130.347473 
	C533.599915,107.515732 519.373169,93.318520 496.438416,93.311821 
	C426.792297,93.291489 357.146210,93.306038 286.500061,93.306480 
z"/>
<path fill="#000000" opacity="1.000000" stroke="none" 
	d="
M169.136810,239.549561 
	C171.256546,240.656509 173.007782,241.618469 174.770920,242.558060 
	C180.475067,245.597824 187.043839,242.974167 189.009369,236.848953 
	C189.771820,234.472946 190.325836,232.024109 191.188354,229.687256 
	C193.888275,222.372177 200.203476,217.866302 207.967285,217.709305 
	C212.630020,217.615005 217.296860,217.618286 221.960266,217.686356 
	C230.128799,217.805557 236.340408,222.247818 239.040237,229.884613 
	C239.927048,232.393082 240.558182,234.991867 241.443512,237.500946 
	C243.127426,242.273148 249.125702,244.695709 253.641876,242.504013 
	C272.139771,233.526978 273.861115,233.805054 288.806000,248.184494 
	C298.451111,257.464691 299.508301,263.943787 293.303986,275.751190 
	C288.727448,284.460754 291.120850,289.933075 300.723145,292.714478 
	C313.209869,296.331390 317.256073,301.687714 317.299500,314.661011 
	C317.303986,315.993744 317.298401,317.326447 317.300415,318.659180 
	C317.324921,334.873444 314.741730,338.443359 299.317474,343.509766 
	C292.392426,345.784424 289.907043,352.051117 293.446899,358.312012 
	C301.010284,371.689331 300.251587,377.459351 289.496429,388.366211 
	C288.560730,389.315155 287.631683,390.270691 286.695526,391.219177 
	C276.799286,401.245667 270.747711,402.193329 258.313477,395.659210 
	C255.537231,394.200317 253.097290,392.795441 249.469315,394.177094 
	C245.173355,395.813141 243.339615,398.497681 242.215057,402.693573 
	C238.725784,415.712708 233.195450,419.848480 219.789902,420.088715 
	C217.624786,420.127502 215.459015,420.159851 213.293701,420.152283 
	C201.155548,420.109802 195.383331,415.782349 191.839676,404.089142 
	C188.903656,394.401001 183.523773,392.155762 174.707993,396.939423 
	C162.758636,403.423431 156.923920,402.581268 147.114151,392.954285 
	C145.092926,390.970703 143.035385,389.022156 141.063843,386.990234 
	C134.209991,379.926605 133.094284,372.964630 137.360870,364.210541 
	C143.620499,351.367157 142.339569,348.307953 128.785187,344.185089 
	C121.656120,342.016663 116.657761,337.589111 115.309280,330.219788 
	C114.020340,323.175812 113.953941,315.876831 115.222855,308.849335 
	C116.640144,301.000061 122.351830,296.850403 129.824387,294.754059 
	C133.372940,293.758575 137.156769,293.397614 138.939835,288.858124 
	C140.503601,284.877014 140.361877,281.889648 138.187057,278.193451 
	C131.007996,265.992523 132.040253,259.587219 142.120483,249.366806 
	C143.758102,247.706421 145.374588,246.025162 146.999344,244.352112 
	C153.183960,237.983719 160.330078,235.840057 169.136810,239.549561 
M261.652588,256.254517 
	C255.480652,260.771301 249.513870,260.737549 242.089600,258.080750 
	C232.572403,254.674988 226.700745,249.542099 225.422485,239.429749 
	C224.812943,234.607803 222.027527,233.027054 217.102951,233.208206 
	C204.896194,233.657211 206.937042,232.039429 203.837067,243.347107 
	C202.072281,249.784348 198.880951,253.327637 192.710922,256.553040 
	C182.442810,261.920746 173.676224,262.053986 164.607559,255.067535 
	C162.294174,253.285324 160.207077,253.761215 157.974777,255.805374 
	C148.697693,264.300659 148.460266,264.341614 154.876358,275.342896 
	C157.923416,280.567566 157.499680,284.936401 155.710419,290.746277 
	C152.228104,302.053619 145.849838,308.636993 134.121536,310.134338 
	C131.426987,310.478363 130.273499,312.407623 130.336700,315.158905 
	C130.675369,329.903320 128.407288,327.691071 141.494965,331.150238 
	C147.513687,332.741028 151.774963,335.338196 153.283905,341.721191 
	C153.887741,344.275574 154.999863,346.823212 156.392532,349.054382 
	C159.418289,353.901794 158.747635,358.258789 156.108032,363.097046 
	C149.396332,375.399200 148.680511,372.038879 159.327423,382.701385 
	C161.636292,385.013611 163.713699,384.991852 166.429352,383.486603 
	C181.081177,375.365051 178.328049,374.805817 193.358307,381.368866 
	C199.817047,384.189148 203.579529,387.343506 205.537369,394.161682 
	C208.679779,405.105194 205.788834,403.659363 218.938721,404.011536 
	C224.068634,404.148926 226.736343,402.334290 227.359558,397.272980 
	C228.481155,388.163971 232.761169,381.783875 242.396530,380.019379 
	C243.666306,379.786865 244.945923,379.123413 246.016205,378.369019 
	C250.933029,374.903625 255.515182,375.960754 260.455688,378.633453 
	C273.119659,385.484314 269.235474,385.969971 280.006134,375.436401 
	C282.261902,373.230316 283.054108,371.284821 281.032471,368.562958 
	C280.048798,367.238647 279.557953,365.545502 278.561584,364.233856 
	C273.845215,358.025177 274.525604,352.263397 277.113647,344.838531 
	C282.053711,330.665985 282.671967,332.268738 296.444397,327.822296 
	C298.326538,327.214630 300.899689,327.015778 301.262299,324.807190 
	C302.015289,320.220581 302.364288,315.388947 300.973419,310.969666 
	C299.895172,307.543640 295.811859,307.613892 292.842224,307.055878 
	C285.148438,305.610199 281.190186,301.387146 277.655823,294.072144 
	C273.075653,284.592651 273.076355,276.918182 278.980591,268.676697 
	C280.105072,267.107056 281.630798,264.959869 280.493927,263.144989 
	C277.924072,259.042603 274.456909,255.465302 270.311371,253.066299 
	C267.298248,251.322617 264.971771,254.847977 261.652588,256.254517 
z"/>
<path fill="#000000" opacity="1.000000" stroke="none" 
	d="
M592.000000,228.958862 
	C598.665466,228.965424 604.833435,228.864059 610.995850,229.005707 
	C618.435730,229.176712 621.275391,232.082703 621.295959,239.439987 
	C621.340210,255.270294 621.323914,271.100830 621.306396,286.931244 
	C621.297180,295.259491 618.601868,298.078278 610.269897,298.097626 
	C584.108154,298.158325 557.946228,298.127930 531.784363,298.129700 
	C491.458405,298.132446 451.132477,298.139404 410.806519,298.129028 
	C400.923615,298.126495 398.664459,295.888123 398.659332,286.188141 
	C398.651306,271.024261 398.648132,255.860352 398.665039,240.696487 
	C398.675476,231.293335 400.940613,229.007782 410.533051,228.987579 
	C432.528931,228.941238 454.524963,228.965164 476.520935,228.963531 
	C514.847290,228.960709 553.173645,228.960129 592.000000,228.958862 
M441.500000,281.955322 
	C447.830750,281.955872 454.161499,281.956787 460.492249,281.956879 
	C506.806366,281.957611 553.120667,281.903442 599.434387,282.043030 
	C604.086914,282.057068 605.998657,280.908356 605.765198,275.916016 
	C605.384216,267.770477 605.342773,259.577576 605.771484,251.436966 
	C606.046387,246.217056 604.164673,245.026215 599.230896,245.048203 
	C559.748047,245.224136 520.264099,245.137161 480.780487,245.137909 
	C460.455597,245.138290 440.130310,245.220459 419.806152,245.103455 
	C415.899078,245.080978 414.072937,246.030411 414.218781,250.401962 
	C414.513031,259.221802 414.472900,268.063019 414.229340,276.885956 
	C414.117523,280.935486 415.732544,282.114258 419.510162,282.013733 
	C426.502319,281.827698 433.502930,281.957336 441.500000,281.955322 
z"/>
<path fill="#000000" opacity="1.000000" stroke="none" 
	d="
M611.649841,381.213501 
	C589.048157,381.214111 566.908691,381.222321 544.769226,381.197449 
	C536.195374,381.187836 533.683044,378.713837 533.670959,370.283264 
	C533.648071,354.302917 533.636414,338.322479 533.678284,322.342194 
	C533.697266,315.116394 536.088440,312.670135 543.195190,312.656128 
	C566.000427,312.611206 588.805847,312.603760 611.611084,312.636322 
	C618.549377,312.646240 621.253479,315.336670 621.281921,322.329437 
	C621.348328,338.642456 621.349426,354.956024 621.295349,371.269135 
	C621.273315,377.919861 618.968872,380.304413 611.649841,381.213501 
M605.654358,335.647522 
	C605.625061,328.253662 605.625061,328.248383 598.380554,328.245483 
	C583.576416,328.239563 568.771667,328.310669 553.968628,328.183990 
	C550.596069,328.155121 549.176819,329.162811 549.241882,332.722595 
	C549.415222,342.200775 549.421814,351.686188 549.251404,361.164337 
	C549.187012,364.744019 550.633850,365.708954 553.991699,365.680176 
	C569.460083,365.547699 584.931458,365.489807 600.398743,365.668884 
	C604.667114,365.718292 605.836914,364.042694 605.723206,360.059540 
	C605.500122,352.247986 605.655945,344.425568 605.654358,335.647522 
z"/>
<path fill="#000000" opacity="1.000000" stroke="none" 
	d="
M398.765015,374.427765 
	C398.697662,356.504486 398.642242,339.022400 398.682343,321.540588 
	C398.696716,315.268188 401.228668,312.668610 407.438385,312.651794 
	C430.747955,312.588776 454.057861,312.586090 477.367432,312.643463 
	C483.252777,312.657928 486.200012,315.644318 486.230011,321.653015 
	C486.313080,338.302368 486.320129,354.952759 486.235504,371.602081 
	C486.202362,378.124786 483.231934,381.146667 476.746643,381.170197 
	C453.770233,381.253571 430.793365,381.214325 407.816650,381.202484 
	C403.361694,381.200165 400.099762,379.418304 398.765015,374.427765 
M459.463287,328.242950 
	C445.969910,328.243378 432.475861,328.316803 418.983612,328.192993 
	C415.612946,328.162079 414.193085,329.185455 414.258270,332.751740 
	C414.431763,342.243866 414.398926,351.742432 414.267029,361.235962 
	C414.221222,364.534607 415.623840,365.633514 418.744141,365.622253 
	C434.569366,365.565033 450.395386,365.548370 466.220123,365.660400 
	C469.846680,365.686066 470.750488,364.005676 470.692566,360.744385 
	C470.559448,353.250549 470.709290,345.752167 470.654938,338.256317 
	C470.571594,326.762390 471.961029,328.406158 459.463287,328.242950 
z"/>
<path fill="#000000" opacity="1.000000" stroke="none" 
	d="
M482.620178,411.065491 
	C480.498840,412.491272 478.478821,412.374268 476.485229,412.374084 
	C453.864441,412.371979 431.243591,412.383270 408.622864,412.350250 
	C402.031372,412.340607 398.637543,409.613892 398.707031,404.568146 
	C398.774780,399.651428 402.344055,396.809967 408.865692,396.796417 
	C431.320068,396.749847 453.774567,396.791656 476.229034,396.776825 
	C480.338745,396.774109 483.820465,397.796112 485.553833,401.987610 
	C487.057526,405.623596 485.728577,408.439209 482.620178,411.065491 
z"/>
<path fill="#000000" opacity="1.000000" stroke="none" 
	d="
M606.939941,412.372864 
	C585.963257,412.372223 565.476074,412.372772 544.988953,412.366669 
	C543.490540,412.366211 541.977417,412.441986 540.496643,412.266449 
	C536.709167,411.817352 534.437012,409.551239 533.854309,405.869232 
	C533.226074,401.899261 535.047607,399.145386 538.706909,397.545227 
	C540.608887,396.713531 542.610657,396.784271 544.604675,396.783295 
	C566.590881,396.772308 588.577026,396.770294 610.563232,396.769897 
	C612.560486,396.769867 614.549683,396.738281 616.436462,397.631927 
	C619.901001,399.272888 621.394470,402.152618 620.957581,405.752655 
	C620.512329,409.422516 618.205261,411.805511 614.417297,412.230804 
	C612.111755,412.489624 609.760376,412.339020 606.939941,412.372864 
z"/>
<path fill="#000000" opacity="1.000000" stroke="none" 
	d="
M597.627075,438.391266 
	C596.019043,442.763824 592.925232,444.263580 588.900208,444.264771 
	C573.579285,444.269196 558.257996,444.319366 542.937622,444.222809 
	C537.062500,444.185822 533.580017,440.906525 533.728516,436.003235 
	C533.872070,431.261597 537.030396,428.662445 543.080200,428.637604 
	C558.400818,428.574707 573.722290,428.554291 589.042603,428.642456 
	C595.352173,428.678772 597.815735,431.485168 597.627075,438.391266 
z"/>
<path fill="#000000" opacity="1.000000" stroke="none" 
	d="
M439.999146,428.603333 
	C445.150269,428.613708 449.804443,428.527679 454.452301,428.661255 
	C459.602661,428.809235 462.930878,432.037903 462.866516,436.570251 
	C462.806458,440.795746 459.519318,444.150208 454.607025,444.192230 
	C438.660858,444.328674 422.711395,444.338867 406.765991,444.153900 
	C401.642120,444.094452 398.506256,440.509430 398.713867,435.912445 
	C398.914246,431.475555 401.905579,428.715790 407.106018,428.658936 
	C417.902710,428.540771 428.701477,428.610992 439.999146,428.603333 
z"/>
<path fill="#000000" opacity="1.000000" stroke="none" 
	d="
M361.627960,579.565063 
	C352.104156,572.742065 348.615936,563.799866 350.947845,552.771606 
	C352.885468,543.608154 361.194672,536.212952 370.793182,534.615356 
	C380.930115,532.928101 391.231415,537.807434 396.207672,546.653137 
	C401.266876,555.646301 400.240387,566.788757 393.625702,574.680908 
	C387.080566,582.490112 376.039368,585.454468 366.435486,581.915405 
	C364.883942,581.343689 363.435577,580.491943 361.627960,579.565063 
M371.562866,550.817871 
	C367.304474,552.693054 365.734985,556.095032 366.394897,560.503662 
	C366.943451,564.168030 369.402191,566.371704 372.854218,567.308472 
	C376.450806,568.284668 379.442535,566.894531 381.639191,564.086426 
	C383.853302,561.256042 384.365997,558.061768 382.473450,554.793579 
	C380.169891,550.815796 376.655792,549.624573 371.562866,550.817871 
z"/>
<path fill="#000000" opacity="1.000000" stroke="none" 
	d="
M342.169739,132.321991 
	C340.200104,132.264420 338.660278,132.419342 337.221069,132.108551 
	C333.547546,131.315216 331.364197,128.791931 331.015503,125.182739 
	C330.660461,121.507957 332.546539,118.773895 336.019714,117.404274 
	C337.221100,116.930496 338.603424,116.723236 339.903687,116.720940 
	C363.184235,116.679810 386.464996,116.650406 409.745422,116.715347 
	C415.301666,116.730843 418.725769,119.954025 418.653503,124.651787 
	C418.581451,129.338821 415.177307,132.299973 409.494080,132.311127 
	C387.211243,132.354858 364.928284,132.324936 342.169739,132.321991 
z"/>
<path fill="#000000" opacity="1.000000" stroke="none" 
	d="
M256.549957,347.450928 
	C243.587967,364.484558 226.858383,372.101074 206.064468,367.795532 
	C185.966721,363.634155 173.263062,350.761658 168.260117,330.884674 
	C161.588608,304.378296 179.471786,276.821564 206.207947,271.804016 
	C234.093155,266.570801 260.300385,285.018280 264.450684,312.439972 
	C266.373138,325.141815 263.494141,336.507721 256.549957,347.450928 
M237.679855,294.807465 
	C230.705139,288.988617 222.688507,286.311005 213.626373,287.031891 
	C200.298676,288.092072 190.569077,294.761414 185.532181,307.030151 
	C180.381714,319.575562 182.204910,331.650238 191.295517,341.976105 
	C199.998535,351.861725 211.281433,355.037964 223.885391,351.977264 
	C236.351196,348.950104 244.535858,340.784729 247.925247,328.370270 
	C251.445145,315.477814 247.691452,304.479187 237.679855,294.807465 
z"/>
</svg>