<svg version="1.1" id="Layer_1" xmlns="http://www.w3.org/2000/svg" xmlns:xlink="http://www.w3.org/1999/xlink" x="0px" y="0px"
	 width="100%" viewBox="0 0 278 242" enable-background="new 0 0 278 242" xml:space="preserve">
<path fill="#F4F4F6" opacity="1.000000" stroke="none" 
	d="
M200.000000,243.000000 
	C134.666672,243.000000 69.833282,242.965515 5.000219,243.096664 
	C1.575556,243.103592 0.898372,242.424347 0.903855,238.999878 
	C1.028756,161.000076 1.028749,83.000000 0.903867,5.000206 
	C0.898384,1.575911 1.575752,0.899615 5.000076,0.904210 
	C94.999901,1.024967 184.999954,1.024960 274.999786,0.904229 
	C278.423798,0.899636 279.101624,1.575475 279.096161,5.000068 
	C278.971252,82.999863 278.971283,160.999939 279.096161,238.999741 
	C279.101624,242.423889 278.428314,243.126740 274.999359,243.100830 
	C250.167404,242.913025 225.333374,243.000000 200.000000,243.000000 
z"/>
<path fill="#0F0F0F" opacity="1.000000" stroke="none" 
	d="
M216.735947,158.000137 
	C216.735397,165.833481 216.754074,173.166870 216.729141,180.500122 
	C216.703644,187.995178 213.937531,190.856506 206.610672,190.858810 
	C158.444016,190.873978 110.277367,190.875778 62.110714,190.856552 
	C55.256596,190.853821 52.284534,187.965622 52.280071,181.235489 
	C52.252563,139.735535 52.252407,98.235527 52.280827,56.735565 
	C52.285435,50.002964 55.247547,47.145008 62.125145,47.142517 
	C110.291794,47.125072 158.458435,47.126286 206.625092,47.140652 
	C213.965668,47.142841 216.723877,49.977058 216.727524,57.500324 
	C216.743668,90.833580 216.735443,124.166855 216.735947,158.000137 
z"/>
<path fill="#F2F2F4" opacity="1.000000" stroke="none" 
	d="
M164.000336,76.468048 
	C178.656036,76.468185 192.813538,76.591431 206.966156,76.382759 
	C210.530823,76.330200 211.358429,77.412369 211.345306,80.846230 
	C211.219269,113.820190 211.200790,146.795135 211.350861,179.768906 
	C211.370834,184.155655 209.966507,185.534973 205.614670,185.516708 
	C172.807343,185.379044 139.998993,185.394028 107.191536,185.515411 
	C103.844383,185.527802 102.334381,184.882935 102.706482,181.219086 
	C103.024551,178.087311 102.771538,174.897385 102.767334,171.733170 
	C102.766220,170.895111 102.792267,169.932388 101.714294,169.794296 
	C100.376183,169.622910 100.056351,170.613800 100.046501,171.685516 
	C100.014366,175.182480 99.928062,178.682938 100.046509,182.175812 
	C100.120377,184.353851 99.715179,185.514206 97.116707,185.489212 
	C85.293625,185.375427 73.468849,185.421616 61.644737,185.443924 
	C58.967518,185.448975 57.709209,184.296631 57.715717,181.533752 
	C57.756107,164.380478 57.772194,147.226883 57.688019,130.073914 
	C57.676266,127.679291 58.429005,126.947212 60.820019,126.968124 
	C72.809807,127.073029 84.802986,127.136826 96.790443,126.939690 
	C100.144989,126.884529 100.051826,128.586761 100.039406,130.935806 
	C99.980438,142.087769 100.013054,153.240204 100.013054,164.938416 
	C103.132111,162.995636 102.767288,160.310883 102.768173,157.798843 
	C102.777138,132.318588 102.850479,106.837852 102.689056,81.358620 
	C102.665001,77.561844 103.491806,76.312225 107.545242,76.363640 
	C126.194374,76.600204 144.848190,76.468056 164.000336,76.468048 
z"/>
<path fill="#F4F4F6" opacity="1.000000" stroke="none" 
	d="
M86.992310,89.807945 
	C91.465965,89.905663 96.736465,88.488983 99.079506,90.493736 
	C101.852951,92.866776 99.843338,98.304062 99.962822,102.403572 
	C100.142311,108.562241 99.890747,114.733368 100.064423,120.892365 
	C100.137764,123.493309 99.376595,124.321815 96.723808,124.293327 
	C84.730545,124.164536 72.734543,124.175018 60.740959,124.287582 
	C58.277969,124.310699 57.665077,123.452637 57.691956,121.129684 
	C57.799892,111.801773 57.871647,102.468796 57.660362,93.144417 
	C57.588741,89.983543 58.973877,89.728348 61.505306,89.764481 
	C69.833214,89.883331 78.163887,89.808365 86.992310,89.807945 
z"/>
<path fill="#E8E8EA" opacity="1.000000" stroke="none" 
	d="
M84.989120,76.424713 
	C88.645844,76.425133 91.838112,76.713127 94.956421,76.355743 
	C99.174072,75.872375 100.111916,77.457352 100.213623,81.540306 
	C100.328583,86.155060 98.957626,87.321121 94.456017,87.182442 
	C83.491959,86.844658 72.504005,86.855171 61.539249,87.181480 
	C57.272701,87.308441 57.440353,85.066902 57.716022,82.300087 
	C57.973129,79.719559 56.135551,76.075577 61.549519,76.334091 
	C69.180962,76.698502 76.842842,76.425323 84.989120,76.424713 
z"/>
<path fill="#CECED0" opacity="1.000000" stroke="none" 
	d="
M78.929520,62.675362 
	C78.859131,59.509697 80.208984,57.910610 83.010216,57.856598 
	C84.887428,57.820400 86.078552,59.050442 86.634003,60.711742 
	C87.310463,62.734985 86.385590,64.387497 84.653214,65.298508 
	C82.070351,66.656761 80.266678,65.395027 78.929520,62.675362 
z"/>
<path fill="#D2D2D4" opacity="1.000000" stroke="none" 
	d="
M98.746536,64.623962 
	C96.071129,66.641418 94.048096,65.896622 92.615219,63.661831 
	C91.508972,61.936462 92.000450,60.185162 93.562683,58.810627 
	C94.979156,57.564335 96.610313,57.380394 98.081123,58.453358 
	C100.239784,60.028111 100.889061,62.041767 98.746536,64.623962 
z"/>
<path fill="#D5D5D7" opacity="1.000000" stroke="none" 
	d="
M70.496628,65.681641 
	C67.342453,65.818893 65.714096,64.426003 65.712364,61.682999 
	C65.710960,59.446968 67.102486,58.032089 69.396935,57.873150 
	C71.491470,57.728054 72.821213,58.951183 73.372192,60.843357 
	C74.038643,63.132103 72.710899,64.547173 70.496628,65.681641 
z"/>
<path fill="#F0F0F2" opacity="1.000000" stroke="none" 
	d="
M150.394440,126.684494 
	C148.967621,126.998245 147.911209,127.004959 146.458664,127.014854 
	C145.315903,124.549591 147.311859,123.401268 148.642822,122.121063 
	C154.998505,116.007820 160.378952,108.981819 166.765381,102.903473 
	C167.486588,102.217056 168.189072,101.493980 168.661148,100.603386 
	C169.147766,99.685356 169.466141,98.694962 168.498505,97.910294 
	C167.719543,97.278641 166.908096,97.699654 166.226379,98.195602 
	C164.345444,99.563965 162.397141,100.871567 160.794159,102.565605 
	C152.907776,110.899994 143.786423,117.939758 135.944077,126.322197 
	C134.491745,127.874535 133.072723,129.614914 130.357697,129.840179 
	C129.967194,129.357971 129.924637,128.920563 129.798126,127.829292 
	C127.017067,124.833389 123.669067,125.927254 120.626236,125.547981 
	C115.727303,124.937355 114.588181,123.993721 114.530571,118.970512 
	C114.438858,110.973701 114.430138,102.974426 114.533867,94.977852 
	C114.600327,89.854614 115.931046,88.541840 121.192474,88.528976 
	C145.018982,88.470695 168.845734,88.470734 192.672256,88.528000 
	C198.195206,88.541275 199.426605,89.820374 199.477158,95.332748 
	C199.548965,103.163269 199.552963,110.995354 199.475342,118.825806 
	C199.421127,124.295502 198.225464,125.450752 192.568985,125.478889 
	C180.572601,125.538567 168.575760,125.477356 156.579254,125.516197 
	C154.616028,125.522552 152.551620,125.082939 150.394440,126.684494 
z"/>
<path fill="#29292A" opacity="1.000000" stroke="none" 
	d="
M150.491089,127.003220 
	C150.458099,123.477654 153.187286,124.192474 155.390808,124.184937 
	C168.036911,124.141640 180.685287,124.038116 193.328156,124.245323 
	C196.863831,124.303268 198.265472,123.694145 198.108490,119.716293 
	C197.761032,110.910904 197.917328,102.081116 198.051559,93.264069 
	C198.089874,90.747055 197.513687,89.808861 194.776932,89.819862 
	C169.651245,89.920937 144.524872,89.911209 119.399048,89.829178 
	C116.842834,89.820839 115.949257,90.477661 115.993904,93.158798 
	C116.149033,102.474495 116.127419,111.795349 116.003761,121.111992 
	C115.971504,123.542267 116.778336,124.310478 119.141228,124.204735 
	C122.628334,124.048668 126.131638,124.074608 129.621155,124.206055 
	C132.698868,124.321991 131.490692,125.582176 129.937851,126.966621 
	C125.382843,127.146088 121.043350,126.943588 116.723061,127.147659 
	C113.795799,127.285919 113.056778,126.192757 113.090096,123.418175 
	C113.222130,112.420425 113.205452,101.419571 113.098854,90.421272 
	C113.074295,87.888321 113.750488,86.916115 116.454483,86.924484 
	C143.452576,87.008087 170.451096,87.001305 197.449280,86.931480 
	C199.974930,86.924950 200.973618,87.581032 200.943115,90.282295 
	C200.817032,101.446861 200.780960,112.615410 200.958069,123.778587 
	C201.009781,127.037819 199.380753,127.129791 196.952972,127.116753 
	C181.621628,127.034409 166.289810,127.039009 150.491089,127.003220 
z"/>
<path fill="#131313" opacity="1.000000" stroke="none" 
	d="
M129.904877,130.067352 
	C140.866333,119.746063 151.665421,109.633224 162.633011,99.706520 
	C164.585892,97.938972 166.688965,93.648148 169.829498,96.785789 
	C172.944153,99.897575 168.747543,102.020920 166.947891,104.020142 
	C160.155151,111.566093 153.172928,118.941460 146.162079,126.699364 
	C140.703598,131.145248 137.258286,137.216370 131.350067,141.144791 
	C128.701614,140.426971 127.340271,138.706711 126.048904,136.441315 
	C125.286736,132.933228 128.668869,132.394775 129.904877,130.067352 
z"/>
<path fill="#171717" opacity="1.000000" stroke="none" 
	d="
M104.973724,165.630341 
	C104.991394,161.040222 106.113693,156.617081 107.780617,152.376770 
	C108.873398,149.596939 110.959946,147.731415 114.255005,147.830856 
	C116.495438,147.898483 118.061737,148.975647 118.809708,151.061447 
	C119.962219,154.275360 118.240509,156.450104 115.995842,158.410233 
	C112.736855,161.256119 109.401260,163.983246 104.973724,165.630341 
z"/>
<path fill="#181818" opacity="1.000000" stroke="none" 
	d="
M129.268799,142.612793 
	C127.237907,148.139648 124.276039,148.710968 119.866486,144.451904 
	C119.302803,143.336044 119.079887,142.536499 119.496292,141.273071 
	C120.249733,139.981277 120.845497,139.082321 121.662628,137.941711 
	C125.987526,136.518295 127.248100,139.903244 129.268799,142.612793 
z"/>
<path fill="#B2B2B4" opacity="1.000000" stroke="none" 
	d="
M129.650543,142.983429 
	C126.708969,141.790802 125.814209,138.305359 122.258133,137.736877 
	C122.329834,134.967773 124.463776,137.501770 125.680946,136.349945 
	C128.026260,137.028580 129.058731,139.152298 130.882965,140.825348 
	C130.637894,141.751862 130.283463,142.363098 129.650543,142.983429 
z"/>
<path fill="#B2B2B4" opacity="1.000000" stroke="none" 
	d="
M119.363083,140.947052 
	C119.710495,141.688797 119.767029,142.497360 119.761337,143.707977 
	C117.807198,143.418747 117.841316,142.337479 119.363083,140.947052 
z"/>
</svg>