<svg version="1.1" id="Layer_1" xmlns="http://www.w3.org/2000/svg" xmlns:xlink="http://www.w3.org/1999/xlink" x="0px" y="0px"
	 width="100%" viewBox="0 0 830 648" enable-background="new 0 0 830 648" xml:space="preserve">
<path fill="#FFFFFF" opacity="1.000000" stroke="none" 
	d="
M574.000000,649.000000 
	C384.166656,649.000000 194.833328,648.987122 5.500053,649.093689 
	C1.750729,649.095825 0.904629,648.249207 0.906478,644.499939 
	C1.011514,431.500000 1.011514,218.500000 0.906478,5.500046 
	C0.904629,1.750775 1.750852,0.905337 5.500035,0.906737 
	C279.166656,1.008963 552.833313,1.008963 826.499939,0.906737 
	C830.249146,0.905337 831.095398,1.750774 831.093567,5.500046 
	C830.988525,218.500000 830.988464,431.500000 831.093506,644.499939 
	C831.095337,648.249207 830.249878,649.100830 826.499878,649.095276 
	C742.500061,648.971130 658.500000,649.000000 574.000000,649.000000 
z"/>
<path fill="#B8B8B8" opacity="1.000000" stroke="none" 
	d="
M619.804871,498.615479 
	C621.390869,503.727173 616.594482,511.521606 611.445068,515.728516 
	C606.543091,519.733215 601.308228,519.870483 595.681946,519.869873 
	C463.897949,519.856445 332.113831,519.786804 200.330185,520.008057 
	C190.556961,520.024475 184.109894,516.510437 178.473969,508.745697 
	C175.949722,505.267883 174.735809,502.472473 175.629272,498.268433 
	C178.202850,497.684235 178.008804,499.676941 178.412079,500.899628 
	C180.758194,508.013092 185.947556,512.343506 192.361160,515.585388 
	C194.932617,516.885193 197.457825,516.715881 200.483902,515.760315 
	C203.563736,515.298645 206.231842,515.383606 208.894699,515.383484 
	C334.632416,515.377808 460.370117,515.378540 586.107849,515.380920 
	C588.439026,515.380981 590.771545,515.345093 593.533875,515.581909 
	C602.383484,519.003845 611.180298,512.615540 614.968506,506.312897 
	C616.491394,503.779053 617.201172,500.771515 619.804871,498.615479 
z"/>
<path fill="#595959" opacity="1.000000" stroke="none" 
	d="
M195.070740,137.806030 
	C198.941589,137.680191 202.437042,137.544159 205.932510,137.543854 
	C333.170349,137.532669 460.408203,137.530869 587.646057,137.548080 
	C591.806946,137.548645 595.967834,137.760529 600.571167,137.862549 
	C610.303345,139.369186 617.777832,146.460083 619.367920,155.768463 
	C617.969910,156.979645 616.764587,156.566299 615.237366,155.856018 
	C612.046143,150.721359 609.243958,145.710892 603.001953,143.534973 
	C601.569824,142.259644 600.457825,141.178940 598.255920,141.544464 
	C464.897552,141.674667 331.978241,141.630188 198.617920,141.589188 
	C196.575775,141.475143 194.977066,141.364075 193.609543,143.166595 
	C186.705200,145.332764 182.842117,149.920532 180.514130,156.500183 
	C179.696548,156.841629 179.196472,156.905304 178.309875,156.797943 
	C176.103210,155.872421 176.185791,154.389725 176.884109,152.939224 
	C180.572540,145.278061 185.907928,139.517960 195.070740,137.806030 
z"/>
<path fill="#595959" opacity="1.000000" stroke="none" 
	d="
M620.236938,498.140625 
	C616.839539,505.685455 613.693909,512.837219 605.622498,516.188110 
	C602.631653,517.429810 599.797791,518.329834 596.277222,517.727905 
	C595.032410,514.869141 597.509583,515.096130 598.702942,514.370911 
	C602.747559,511.912994 607.868225,511.419708 610.963318,507.126740 
	C612.238586,505.357971 613.557922,503.722504 614.347900,501.267914 
	C615.474976,499.704712 616.824158,498.674805 616.440063,496.387634 
	C616.325623,385.902191 616.405518,275.860931 616.386902,165.819687 
	C616.386597,163.989227 616.360596,162.155716 616.766968,159.864960 
	C617.012390,159.097534 617.143860,158.803833 617.584106,158.145081 
	C618.492615,157.517365 619.103821,157.484726 619.973267,158.084106 
	C620.286926,164.972534 620.411926,171.465164 620.412781,177.957809 
	C620.425903,281.210480 620.424377,384.463165 620.418579,487.715851 
	C620.418396,491.045715 620.336914,494.375580 620.236938,498.140625 
z"/>
<path fill="#595959" opacity="1.000000" stroke="none" 
	d="
M199.191437,517.030212 
	C193.263138,518.443420 183.746185,513.627319 180.558624,507.841675 
	C178.916336,504.860779 176.756897,502.036469 176.199524,498.212463 
	C175.904282,385.299194 175.903717,272.606995 175.889465,159.444946 
	C176.459686,158.613434 177.085312,158.513565 178.126511,158.994019 
	C180.109543,162.272644 179.563217,165.503738 179.564072,168.630310 
	C179.593140,274.442139 179.607468,380.253937 179.534149,486.065735 
	C179.530151,491.829132 180.213547,497.197174 182.813797,502.471588 
	C185.004807,506.915924 187.840775,510.166473 192.526672,511.891174 
	C195.144791,512.854797 197.928635,513.771790 199.191437,517.030212 
z"/>
<path fill="#B8B8B8" opacity="1.000000" stroke="none" 
	d="
M177.867004,158.741119 
	C177.122696,158.866333 176.771591,158.923065 176.148132,158.977432 
	C174.229446,152.939529 177.721176,145.635101 184.296234,141.214249 
	C187.445084,139.097076 190.078201,135.701401 195.034943,137.521347 
	C192.280518,139.424362 188.874878,140.764664 186.005478,142.844711 
	C181.684174,145.977249 178.845642,150.380478 177.458740,155.780884 
	C178.198090,156.211639 178.526703,156.586029 178.618988,157.552734 
	C178.488556,158.191956 178.374374,158.432297 177.867004,158.741119 
z"/>
<path fill="#B8B8B8" opacity="1.000000" stroke="none" 
	d="
M620.453369,158.059204 
	C619.917175,158.337418 619.614624,158.194931 619.060791,158.029175 
	C618.551880,157.649918 618.402710,157.251663 618.435303,156.505402 
	C617.153748,148.901901 612.851929,143.938339 606.277649,140.783707 
	C604.646973,140.001236 603.008423,139.235291 601.193481,138.156464 
	C606.778442,134.514862 610.084167,139.824326 613.093750,142.406128 
	C617.385925,146.088226 622.464478,150.460358 620.453369,158.059204 
z"/>
<path fill="#030303" opacity="1.000000" stroke="none" 
	d="
M177.654816,159.260071 
	C177.473801,158.809586 177.548416,158.341171 177.683594,158.146301 
	C178.511322,157.548615 179.027161,156.945679 179.772400,156.161652 
	C181.508255,149.294083 184.915344,144.383606 192.408356,142.874054 
	C193.904449,142.307892 194.616074,141.272812 195.845566,140.406036 
	C199.089905,140.101074 202.080765,139.837540 205.071655,139.837067 
	C333.715424,139.816681 462.359161,139.818176 591.002930,139.829926 
	C593.666016,139.830170 596.329102,139.982422 599.448486,140.147125 
	C600.945923,140.868042 601.730469,141.813614 602.963562,142.677185 
	C609.571167,144.068405 612.957520,148.339752 615.006348,154.465332 
	C615.674561,155.846268 616.622314,156.530472 617.538452,157.676788 
	C617.841980,160.641098 618.140137,163.292938 618.140747,165.944855 
	C618.164551,274.135345 618.162781,382.325806 618.153748,490.516296 
	C618.153564,492.678101 618.029297,494.839935 617.884155,497.459473 
	C617.130005,498.942413 616.180542,499.736664 615.349243,501.002747 
	C614.389648,507.500580 610.426147,511.012482 604.931885,513.231750 
	C602.048523,514.396362 599.199402,515.645813 596.146851,517.181702 
	C463.961670,517.495911 331.964417,517.485352 199.501465,517.482300 
	C196.395782,515.529175 193.625153,513.984680 190.388626,513.007996 
	C186.125488,511.721527 183.813126,508.199341 181.572266,504.406250 
	C176.681641,496.127991 177.892578,487.172913 177.891510,478.336792 
	C177.878784,372.626404 177.902817,266.916046 177.913696,161.205658 
	C177.913742,160.707291 177.862915,160.208923 177.654816,159.260071 
z"/>
<path fill="#1F1F1F" opacity="1.000000" stroke="none" 
	d="
M617.964783,157.961975 
	C616.099304,157.886520 615.242493,157.037109 615.137207,155.118164 
	C616.102112,155.199890 617.018066,155.628891 618.229004,156.125732 
	C618.626221,156.591171 618.728333,156.988754 618.819946,157.696121 
	C618.622070,157.982193 618.434570,157.958466 617.964783,157.961975 
z"/>
<path fill="#1F1F1F" opacity="1.000000" stroke="none" 
	d="
M195.759369,140.194763 
	C195.862030,141.757370 195.118515,142.775116 193.124268,142.861877 
	C193.123474,141.397476 193.799988,140.304062 195.759369,140.194763 
z"/>
<path fill="#1F1F1F" opacity="1.000000" stroke="none" 
	d="
M603.146790,142.480469 
	C601.602539,143.114975 600.572021,142.415268 599.970825,140.559265 
	C601.538513,139.918091 602.477051,140.742935 603.146790,142.480469 
z"/>
<path fill="#1F1F1F" opacity="1.000000" stroke="none" 
	d="
M179.573853,155.934082 
	C179.978165,156.961044 179.682373,157.765549 178.169235,157.951935 
	C177.730972,157.529114 177.643188,157.106796 177.601990,156.357941 
	C178.161942,155.999588 178.675278,155.967758 179.573853,155.934082 
z"/>
<path fill="#1F1F1F" opacity="1.000000" stroke="none" 
	d="
M615.571350,501.193207 
	C614.865845,499.620880 615.570557,498.583374 617.470947,497.981812 
	C618.088196,499.530518 617.318665,500.510376 615.571350,501.193207 
z"/>
<path fill="#7E7E7E" opacity="1.000000" stroke="none" 
	d="
M191.252335,385.000000 
	C191.252396,336.169861 191.250916,287.839722 191.253250,239.509598 
	C191.253601,232.240952 191.261856,232.227783 198.398727,232.227585 
	C302.725159,232.224670 407.051575,232.232330 511.377991,232.193329 
	C514.547241,232.192139 517.891174,233.034912 520.310486,229.384491 
	C521.415039,227.717804 524.257629,226.691742 522.928467,224.340912 
	C521.554321,221.910629 519.938660,219.095596 516.564636,218.779160 
	C514.414246,218.577469 512.236694,218.630157 510.071320,218.630035 
	C406.411530,218.623932 302.751740,218.624710 199.091934,218.624023 
	C191.254501,218.623978 191.253006,218.621597 191.252243,210.560226 
	C191.250961,196.727814 191.249237,182.895386 191.252319,169.062973 
	C191.255859,153.149155 191.258041,153.143799 206.940857,153.143295 
	C274.936340,153.141129 342.931854,153.142334 410.927338,153.142395 
	C470.256744,153.142456 529.586121,153.141953 588.915527,153.145096 
	C591.581909,153.145248 594.252686,153.087982 596.913757,153.216263 
	C602.287781,153.475327 604.447632,155.599976 604.745544,160.876221 
	C604.867615,163.036850 604.822144,165.207993 604.822205,167.374344 
	C604.825134,274.700562 604.824829,382.026794 604.824036,489.353027 
	C604.824036,490.519592 604.821777,491.686249 604.807373,492.852692 
	C604.702881,501.285492 602.554077,503.500793 594.080688,503.501862 
	C463.422699,503.518555 332.764709,503.517548 202.106720,503.500946 
	C193.410294,503.499817 191.284012,501.341522 191.275314,492.492035 
	C191.240234,456.828064 191.255432,421.164001 191.252335,385.000000 
z"/>
<path fill="#FAFAFA" opacity="1.000000" stroke="none" 
	d="
M511.000000,155.082001 
	C537.494812,155.081512 563.493225,155.331528 589.482422,154.949112 
	C598.995117,154.809128 603.009460,159.167740 602.994141,168.229477 
	C602.813232,274.874451 602.880310,381.519897 602.865845,488.165192 
	C602.865479,491.132507 603.384033,494.370453 601.461609,496.850891 
	C599.223450,499.738647 596.477417,501.392426 592.235962,501.387482 
	C462.762054,501.236603 333.287964,501.270142 203.813919,501.254578 
	C196.517563,501.253693 193.523972,498.133789 193.522507,490.581024 
	C193.506348,406.931122 193.555862,323.281128 193.399155,239.631516 
	C193.389923,234.703873 195.511063,234.421295 199.364899,234.423920 
	C302.677490,234.494202 405.990112,234.481522 509.302734,234.466614 
	C511.796906,234.466248 514.300171,234.383270 516.783447,234.162262 
	C523.216858,233.589722 525.946899,230.601074 525.621948,224.648560 
	C525.333557,219.365356 521.944885,216.438614 515.796143,216.418182 
	C499.466248,216.363922 483.136139,216.381882 466.806091,216.381653 
	C377.990540,216.380417 289.175018,216.382797 200.359482,216.382446 
	C193.515701,216.382416 193.511292,216.377151 193.511154,209.769379 
	C193.510849,194.939026 193.478973,180.108521 193.533981,165.278366 
	C193.559494,158.395782 196.624725,155.353714 203.561859,155.098236 
	C205.226028,155.036957 206.894196,155.080627 208.560516,155.080627 
	C309.207001,155.080780 409.853516,155.081421 511.000000,155.082001 
z"/>
<path fill="#0E0E0E" opacity="1.000000" stroke="none" 
	d="
M325.999878,312.545105 
	C300.682007,312.543640 275.864105,312.569733 251.046341,312.525879 
	C242.258514,312.510345 239.727661,309.964355 239.685135,301.254150 
	C239.641235,292.260162 239.608780,283.264496 239.734146,274.271851 
	C239.818726,268.205780 242.862061,265.241547 248.972702,264.894012 
	C250.467941,264.808899 251.968842,264.796631 253.467148,264.796570 
	C349.740417,264.792267 446.013702,264.791687 542.286987,264.799896 
	C544.284119,264.800049 546.289124,264.814117 548.276733,264.983337 
	C552.774963,265.366241 556.195923,268.517303 556.269714,272.938660 
	C556.444885,283.427826 556.435608,293.923584 556.276855,304.413269 
	C556.208984,308.897156 552.829407,312.126495 548.358032,312.417877 
	C545.536865,312.601715 542.697876,312.542023 539.866882,312.542206 
	C468.744537,312.547150 397.622223,312.545563 325.999878,312.545105 
z"/>
<path fill="#111111" opacity="1.000000" stroke="none" 
	d="
M413.710449,407.999634 
	C413.715057,390.011078 413.687622,372.522491 413.737640,355.034088 
	C413.761108,346.825165 416.350952,343.948822 424.323120,343.932617 
	C464.796265,343.850464 505.269806,343.850494 545.742981,343.932983 
	C553.739441,343.949280 556.421082,346.841675 556.432678,354.931122 
	C556.475220,384.578247 556.475159,414.225525 556.432739,443.872650 
	C556.420715,452.270569 553.777344,454.909668 545.347900,454.917053 
	C505.041077,454.952362 464.734161,454.951660 424.427368,454.912170 
	C416.463684,454.904388 413.773682,452.107880 413.734222,443.976410 
	C413.676788,432.151031 413.713531,420.325256 413.710449,407.999634 
z"/>
<path fill="#141414" opacity="1.000000" stroke="none" 
	d="
M327.000000,407.226868 
	C342.479614,407.233826 357.459442,407.196564 372.438751,407.269196 
	C378.550659,407.298828 382.273926,410.526062 382.217865,415.438293 
	C382.164337,420.127869 378.492340,423.318176 372.662750,423.324463 
	C331.552155,423.368835 290.441467,423.367676 249.330872,423.321259 
	C243.508148,423.314697 239.848785,420.115875 239.810577,415.414062 
	C239.770569,410.489624 243.477554,407.276947 249.604553,407.263824 
	C275.236267,407.209015 300.868164,407.232269 327.000000,407.226868 
z"/>
<path fill="#161616" opacity="1.000000" stroke="none" 
	d="
M253.113434,391.701691 
	C249.100388,391.401611 245.412888,392.463806 242.360229,389.254456 
	C240.000443,386.773560 238.977234,384.088135 240.165787,381.151733 
	C241.362122,378.196045 243.613785,375.749451 247.234039,375.656219 
	C252.387207,375.523499 257.544739,375.530914 262.700378,375.528564 
	C278.169189,375.521515 293.638245,375.495697 309.106750,375.567322 
	C315.477478,375.596802 318.873444,378.538483 318.841309,383.677887 
	C318.809937,388.687134 315.300537,391.647644 308.982788,391.668762 
	C290.520142,391.730469 272.057220,391.697662 253.113434,391.701691 
z"/>
<path fill="#464646" opacity="1.000000" stroke="none" 
	d="
M382.136475,348.656738 
	C382.295685,350.701172 382.323700,352.433228 382.302124,354.596191 
	C381.090820,357.272308 379.260162,358.877136 376.886902,360.265930 
	C360.587341,360.332397 344.622070,360.479858 328.656738,360.484070 
	C301.211456,360.491272 273.766205,360.409180 245.889496,360.307861 
	C242.714828,359.822906 241.698395,357.351013 239.902802,355.341431 
	C239.746399,353.295258 239.710373,351.566437 239.722214,349.407227 
	C240.764496,346.854553 242.505173,345.429993 244.664490,343.997681 
	C261.775757,342.977905 278.574249,343.558228 295.365509,343.507721 
	C322.138916,343.427155 348.912964,343.563202 376.120941,343.653564 
	C379.248444,344.219208 380.320404,346.641418 382.136475,348.656738 
z"/>
<path fill="#070707" opacity="1.000000" stroke="none" 
	d="
M294.308563,454.566101 
	C279.341431,455.394867 264.683960,454.781342 249.583313,454.681854 
	C245.691254,454.756195 243.689636,452.020782 240.781006,450.256897 
	C239.810852,448.688324 239.771759,447.341522 240.190216,445.556641 
	C242.327042,442.729309 244.439316,440.430878 247.813446,438.971710 
	C263.410828,438.191528 278.583038,438.540985 294.190857,438.721008 
	C298.685638,440.432953 301.984863,442.720032 302.112885,448.051819 
	C302.015411,448.684967 301.954865,448.930115 301.743073,449.513306 
	C300.955353,450.846741 299.859924,451.397186 298.958435,452.598633 
	C298.582275,453.003510 298.421814,453.154572 297.980103,453.474243 
	C296.701813,454.035675 295.664154,454.286652 294.308563,454.566101 
z"/>
<path fill="#161616" opacity="1.000000" stroke="none" 
	d="
M540.505615,225.083664 
	C541.370056,219.986298 544.171021,217.410873 549.000793,217.382416 
	C559.127319,217.322754 569.255310,217.288864 579.380859,217.406967 
	C584.437988,217.465958 587.769653,220.703140 587.856812,225.191910 
	C587.949524,229.967911 584.632324,233.330414 579.275269,233.396866 
	C569.150085,233.522507 559.020996,233.513489 548.895752,233.384476 
	C544.076721,233.323074 541.335815,230.535812 540.505615,225.083664 
z"/>
<path fill="#1F1F1F" opacity="1.000000" stroke="none" 
	d="
M509.079712,178.670563 
	C509.095367,183.739838 509.195892,188.383270 509.064423,193.020111 
	C508.917664,198.195251 505.479889,201.706665 500.848145,201.678192 
	C496.234070,201.649826 492.920227,198.141617 492.779572,192.877747 
	C492.655640,188.240585 492.666534,183.595734 492.769531,178.957642 
	C492.889954,173.536407 495.967041,170.041748 500.556396,169.874283 
	C505.265564,169.702469 508.151825,172.541794 509.079712,178.670563 
z"/>
<path fill="#1F1F1F" opacity="1.000000" stroke="none" 
	d="
M588.185425,178.658295 
	C588.198547,183.728012 588.296082,188.370361 588.161560,193.005951 
	C588.011658,198.169785 584.571106,201.701614 579.972351,201.679138 
	C575.333740,201.656479 572.026489,198.169357 571.887817,192.904465 
	C571.765686,188.268127 571.764221,183.624023 571.875183,178.987320 
	C572.006348,173.503723 575.042542,170.043121 579.641357,169.871933 
	C584.348511,169.696732 587.228333,172.519104 588.185425,178.658295 
z"/>
<path fill="#1F1F1F" opacity="1.000000" stroke="none" 
	d="
M308.192444,171.851303 
	C310.521179,173.810669 311.332794,176.007355 311.282745,178.683929 
	C311.192841,183.492477 311.363129,188.307068 311.220825,193.113098 
	C311.075165,198.031708 307.747131,201.544022 303.405609,201.677216 
	C298.646240,201.823227 295.238617,198.566605 295.011261,193.225937 
	C294.799835,188.259186 294.741516,183.266190 294.994446,178.304031 
	C295.376221,170.813950 301.373596,167.799713 308.192444,171.851303 
z"/>
<path fill="#1D1D1D" opacity="1.000000" stroke="none" 
	d="
M454.676636,198.101013 
	C452.087158,190.485641 452.917572,182.945740 453.812927,175.625656 
	C454.242859,172.111191 457.688995,169.425201 462.048492,169.919327 
	C466.216064,170.391708 468.934540,173.007996 469.255737,176.964493 
	C469.725555,182.750931 469.495026,188.605652 469.352936,194.426132 
	C469.264801,198.037643 466.712280,200.283325 463.723358,201.362213 
	C460.340088,202.583420 457.169891,201.444412 454.676636,198.101013 
z"/>
<path fill="#1D1D1D" opacity="1.000000" stroke="none" 
	d="
M271.330750,195.953217 
	C268.983368,200.355423 265.737610,203.010178 261.081146,201.354187 
	C256.708313,199.799072 255.099365,196.050385 255.366257,191.363953 
	C255.602417,187.216812 255.355713,183.044601 255.465698,178.887253 
	C255.606766,173.555008 258.850830,169.950256 263.386444,169.887634 
	C268.199127,169.821213 271.533478,173.419250 271.613220,179.099030 
	C271.690247,184.585602 271.514099,190.075699 271.330750,195.953217 
z"/>
<path fill="#1D1D1D" opacity="1.000000" stroke="none" 
	d="
M347.694794,199.733276 
	C341.021271,203.658432 334.961548,200.708786 334.644775,193.608154 
	C334.415131,188.459473 334.466187,183.287827 334.638550,178.134674 
	C334.802948,173.220383 338.331329,169.809280 342.773560,169.893005 
	C346.943390,169.971588 350.496826,173.400040 350.654297,177.893646 
	C350.834839,183.046494 350.660034,188.210846 350.735016,193.368790 
	C350.771606,195.887070 349.954437,197.916290 347.694794,199.733276 
z"/>
<path fill="#1D1D1D" opacity="1.000000" stroke="none" 
	d="
M413.859009,176.093475 
	C415.924622,171.553375 418.979706,168.690475 423.759125,170.160248 
	C428.163452,171.514679 430.143372,175.034470 429.916138,179.816727 
	C429.703278,184.295685 429.943909,188.794815 429.787872,193.278214 
	C429.611572,198.344070 426.401276,201.627670 421.874481,201.660400 
	C417.442810,201.692429 413.869843,198.267746 413.737885,193.435318 
	C413.583679,187.789230 413.750153,182.134399 413.859009,176.093475 
z"/>
<path fill="#C6C6C6" opacity="1.000000" stroke="none" 
	d="
M240.798187,444.694733 
	C240.711472,446.377930 240.752197,447.759888 240.958588,449.525085 
	C242.427795,451.686523 244.643066,452.646118 245.488647,455.139099 
	C241.579269,456.479492 239.260956,454.714691 238.630600,451.060913 
	C236.919586,441.143036 239.141571,437.239441 248.409805,437.155914 
	C263.846649,437.016846 279.286926,437.014893 294.722778,437.200928 
	C298.048767,437.240967 301.974304,437.076172 303.782806,440.990784 
	C305.717438,445.178436 305.163635,449.497498 303.404785,453.528137 
	C302.589722,455.395966 300.447174,456.063141 297.894714,455.619690 
	C297.280334,454.807220 297.322723,454.183228 297.975952,453.472717 
	C298.281219,453.360718 298.293396,453.295288 298.326141,453.289368 
	C298.720886,452.013000 299.766846,451.328918 300.998383,450.471527 
	C301.294617,450.393066 301.325867,450.321838 301.362213,450.307983 
	C302.626587,444.278168 302.280151,443.519592 296.320984,439.774170 
	C279.976410,439.640625 263.954803,439.615936 247.465729,439.623108 
	C244.346558,440.430267 242.628586,442.402252 240.798187,444.694733 
z"/>
<path fill="#ABABAB" opacity="1.000000" stroke="none" 
	d="
M349.029907,392.905579 
	C346.710083,392.900665 344.879669,392.910400 343.049683,392.888550 
	C335.862183,392.802734 333.177551,390.211151 333.225311,383.420959 
	C333.271637,376.837189 335.825043,374.327545 342.830414,374.216583 
	C348.319580,374.129608 353.817566,374.043335 359.300293,374.253174 
	C365.613342,374.494751 367.911499,377.272552 367.821533,383.960052 
	C367.739319,390.070465 365.148590,392.721527 359.003052,392.870209 
	C355.843475,392.946625 352.680817,392.897888 349.029907,392.905579 
z"/>
<path fill="#A1A1A1" opacity="1.000000" stroke="none" 
	d="
M214.918610,181.114197 
	C215.029068,170.628479 217.518906,168.075150 226.201019,168.972519 
	C230.249466,169.390976 232.776199,171.522919 232.901199,175.599182 
	C233.109512,182.392258 233.148071,189.202866 232.901993,195.993210 
	C232.736679,200.554764 229.321594,202.875931 223.709763,202.867203 
	C218.547424,202.859177 215.322769,200.489273 215.069275,196.021393 
	C214.797165,191.225342 214.949951,186.405182 214.918610,181.114197 
z"/>
<path fill="#7E7E7E" opacity="1.000000" stroke="none" 
	d="
M543.894897,202.447647 
	C540.862488,202.781448 538.149048,202.960358 535.368164,201.135849 
	C534.472595,200.465591 533.948853,199.917831 533.225891,199.168488 
	C530.515869,190.785706 531.907898,182.477539 532.279297,173.772644 
	C532.632019,171.967499 533.817017,171.358109 534.979431,170.388931 
	C538.202454,168.871689 541.208313,168.682388 544.655640,169.844574 
	C546.160400,170.919189 547.688904,171.363312 548.548584,173.032257 
	C549.510681,181.664993 549.797974,189.977066 548.188965,198.602417 
	C547.489868,199.546066 546.911499,200.041382 546.155457,200.756256 
	C545.933594,200.934204 546.000000,201.000000 545.967651,200.966263 
	C545.459900,201.574356 544.842224,202.057236 543.894897,202.447647 
z"/>
<path fill="#A1A1A1" opacity="1.000000" stroke="none" 
	d="
M389.992493,193.558929 
	C391.438721,198.239883 389.333954,201.790573 384.895081,202.745163 
	C378.900421,204.034286 373.666626,201.481842 373.323883,196.389618 
	C372.856049,189.438354 372.865814,182.410965 373.311340,175.457245 
	C373.623566,170.584961 378.056000,168.309952 384.310944,168.969971 
	C389.200012,169.485870 390.988129,171.795853 390.630737,177.753601 
	C387.868561,179.006744 387.952087,176.490952 387.027954,175.478958 
	C385.312439,173.600311 383.575806,171.669708 380.795197,172.582703 
	C378.164886,173.446365 376.350525,175.284882 376.406158,178.733490 
	C376.441193,183.352203 376.429443,187.595795 376.443665,192.213608 
	C376.250031,196.100052 378.110870,198.373947 381.219818,199.314407 
	C384.349884,200.261246 386.043976,197.855576 387.597656,195.632721 
	C388.166504,194.818893 388.605499,193.901031 389.992493,193.558929 
z"/>
<path fill="#1F1F1F" opacity="1.000000" stroke="none" 
	d="
M390.349091,193.236557 
	C389.995087,194.064880 389.596222,194.544571 389.311310,195.084412 
	C387.765137,198.014145 386.090546,200.960831 382.243744,200.833603 
	C378.335846,200.704346 376.316254,198.058029 375.345215,194.257416 
	C377.083984,193.011688 378.327728,194.101395 379.680664,194.607925 
	C384.034729,196.238052 386.324493,194.835846 386.690491,190.181183 
	C386.897675,187.546432 386.858490,184.885864 386.715393,182.246552 
	C386.398071,176.394073 383.354279,174.733841 378.384308,177.628235 
	C377.659546,178.050323 376.940735,178.426529 375.765747,178.232086 
	C374.347260,174.164886 377.565521,172.668655 379.879456,171.325699 
	C382.289215,169.927109 384.868378,170.851929 386.896027,173.178604 
	C388.113495,174.575638 389.229401,175.904343 390.024353,177.858429 
	C390.338776,178.409271 390.327362,178.807846 390.373138,179.500885 
	C391.412231,183.227493 391.011292,186.704269 390.609283,190.583435 
	C390.420929,191.632431 390.388885,192.274063 390.349091,193.236557 
z"/>
<path fill="#595959" opacity="1.000000" stroke="none" 
	d="
M245.760239,455.477966 
	C244.211395,453.616699 241.670929,452.949615 241.050995,450.248505 
	C244.548721,449.587555 245.653275,453.806183 249.009155,454.241669 
	C248.488525,456.222473 247.106628,455.254364 245.760239,455.477966 
z"/>
<path fill="#A1A1A1" opacity="1.000000" stroke="none" 
	d="
M390.820862,190.797150 
	C389.019775,187.592957 389.928650,184.077240 390.180420,180.201263 
	C392.813782,183.248566 391.622711,186.952576 390.820862,190.797150 
z"/>
<path fill="#ABABAB" opacity="1.000000" stroke="none" 
	d="
M244.823151,343.644440 
	C244.038330,346.069000 242.047562,347.280121 240.107986,348.912903 
	C239.194809,345.187714 241.893753,344.259094 244.823151,343.644440 
z"/>
<path fill="#ABABAB" opacity="1.000000" stroke="none" 
	d="
M376.871582,360.457214 
	C378.225647,358.545349 379.898682,356.841309 381.912109,355.082153 
	C382.753571,358.871185 380.055542,359.843079 376.871582,360.457214 
z"/>
<path fill="#ABABAB" opacity="1.000000" stroke="none" 
	d="
M239.529709,355.209656 
	C242.185150,355.885681 243.356979,358.186920 245.340637,359.963593 
	C241.497223,361.051575 240.316269,358.313538 239.529709,355.209656 
z"/>
<path fill="#ABABAB" opacity="1.000000" stroke="none" 
	d="
M382.514313,348.776428 
	C379.850433,348.097107 378.647430,345.804596 376.670288,343.991241 
	C380.488495,342.958252 381.687164,345.691650 382.514313,348.776428 
z"/>
<path fill="#595959" opacity="1.000000" stroke="none" 
	d="
M297.922302,453.229553 
	C298.095978,453.881683 297.910767,454.402679 297.620178,455.188965 
	C296.416901,455.379974 295.318909,455.305725 294.107605,454.919312 
	C294.473694,452.424042 296.260986,453.334717 297.922302,453.229553 
z"/>
<path fill="#C6C6C6" opacity="1.000000" stroke="none" 
	d="
M548.700073,172.978882 
	C547.023010,172.975021 546.071655,171.831879 545.100586,170.296600 
	C546.959412,169.880417 548.583679,170.235260 548.700073,172.978882 
z"/>
<path fill="#C6C6C6" opacity="1.000000" stroke="none" 
	d="
M534.900879,170.208679 
	C535.114868,171.719803 534.205933,172.559509 532.691589,173.248001 
	C531.846802,171.431244 532.683594,170.445633 534.900879,170.208679 
z"/>
<path fill="#C6C6C6" opacity="1.000000" stroke="none" 
	d="
M546.276489,200.949554 
	C545.915344,199.956299 546.320496,199.268616 547.609741,198.944580 
	C548.046631,199.960175 547.719666,200.712051 546.276489,200.949554 
z"/>
<path fill="#C6C6C6" opacity="1.000000" stroke="none" 
	d="
M543.937988,202.546768 
	C544.183167,201.911499 544.762573,201.424530 545.638672,200.935028 
	C545.974182,202.079834 545.531006,202.772278 543.937988,202.546768 
z"/>
<path fill="#C6C6C6" opacity="1.000000" stroke="none" 
	d="
M533.028198,199.297699 
	C534.020813,198.927734 534.714905,199.327408 535.035889,200.628571 
	C534.024963,201.055283 533.280457,200.719971 533.028198,199.297699 
z"/>
<path fill="#EDEDED" opacity="1.000000" stroke="none" 
	d="
M476.999939,296.656921 
	C405.336609,296.657257 334.173248,296.658417 263.009918,296.656769 
	C255.542358,296.656586 255.542267,296.648834 255.541275,289.291260 
	C255.541122,288.124634 255.622360,286.951477 255.527527,285.792633 
	C255.238281,282.258240 256.540039,280.347687 260.360748,280.757874 
	C261.349152,280.864014 262.358917,280.770264 263.358856,280.770264 
	C353.354645,280.770782 443.350464,280.771332 533.346252,280.772400 
	C540.550598,280.772491 540.550598,280.774139 540.556763,287.875519 
	C540.557312,288.542145 540.557678,289.208801 540.556824,289.875427 
	C540.548401,296.643311 540.548340,296.653625 533.997375,296.655487 
	C515.164917,296.660858 496.332428,296.657135 476.999939,296.656921 
z"/>
<path fill="#FBFBFB" opacity="1.000000" stroke="none" 
	d="
M506.000641,360.099792 
	C516.163696,360.100006 525.829529,360.234436 535.488342,360.033600 
	C539.247192,359.955475 540.411194,361.351227 540.394287,364.986633 
	C540.287292,387.977509 540.288391,410.969330 540.390442,433.960236 
	C540.406799,437.636963 539.100098,438.890045 535.413025,438.878845 
	C501.925903,438.777069 468.438202,438.767792 434.951202,438.886719 
	C430.992859,438.900757 429.737732,437.520538 429.757996,433.659210 
	C429.877899,410.835083 429.882874,388.009644 429.754486,365.185638 
	C429.732239,361.232666 431.148987,360.013214 435.027435,360.035278 
	C458.517822,360.169067 482.009430,360.100708 506.000641,360.099792 
z"/>
<path fill="#010101" opacity="1.000000" stroke="none" 
	d="
M358.995880,358.141724 
	C322.839630,358.140747 287.181976,358.078278 251.525162,358.227386 
	C247.708496,358.243347 245.635315,356.614716 244.156677,353.579376 
	C242.851120,350.899323 245.039627,349.232635 246.218872,347.338837 
	C247.255630,345.673859 249.075516,345.854553 250.733414,345.854279 
	C290.889679,345.847076 331.045929,345.836456 371.202179,345.868134 
	C375.355896,345.871399 378.664734,348.627533 378.069702,351.989380 
	C377.429474,355.606567 375.320099,358.281738 370.991089,358.159729 
	C367.161835,358.051819 363.327026,358.139893 358.995880,358.141724 
z"/>
<path fill="#595959" opacity="1.000000" stroke="none" 
	d="
M296.129364,440.005066 
	C301.760193,439.945312 304.173676,444.054871 301.766357,450.203888 
	C301.812744,445.879395 299.441010,442.903320 296.129364,440.005066 
z"/>
<path fill="#595959" opacity="1.000000" stroke="none" 
	d="
M241.026978,444.930664 
	C241.329880,441.470703 242.232635,440.582306 246.790756,439.416260 
	C245.399109,441.685425 243.910858,443.835449 241.026978,444.930664 
z"/>
<path fill="#595959" opacity="1.000000" stroke="none" 
	d="
M300.935303,450.247833 
	C301.284180,451.950897 300.160309,452.635803 298.686188,453.293060 
	C297.800629,451.318878 298.739136,450.397644 300.935303,450.247833 
z"/>
<path fill="#161616" opacity="1.000000" stroke="none" 
	d="
M357.501221,390.993073 
	C352.746399,391.014130 348.436096,391.093048 344.130188,390.990021 
	C339.313995,390.874817 335.779510,387.794952 335.669586,383.814758 
	C335.551086,379.524475 339.021210,376.350800 344.232544,376.209442 
	C348.537506,376.092590 352.851318,376.094635 357.155792,376.224426 
	C361.492523,376.355164 365.377380,379.535187 365.695190,382.967072 
	C366.040771,386.698639 362.841675,390.003479 357.501221,390.993073 
z"/>
<path fill="#141414" opacity="1.000000" stroke="none" 
	d="
M216.826401,193.433075 
	C216.782684,188.660812 216.695282,184.329330 216.768112,180.000519 
	C216.856232,174.762100 219.919998,170.965302 223.927048,170.929886 
	C227.924561,170.894562 231.096893,174.719925 231.208481,179.889008 
	C231.294739,183.884521 231.146774,187.885223 231.239304,191.880447 
	C231.347748,196.563583 228.816010,199.839798 224.698395,200.576233 
	C220.289597,201.364731 218.056931,197.800430 216.826401,193.433075 
z"/>
<path fill="#070707" opacity="1.000000" stroke="none" 
	d="
M534.192505,195.200073 
	C533.891968,189.717651 533.725220,184.430603 533.729797,179.143692 
	C533.733521,174.843796 536.937134,172.838821 540.294250,171.788666 
	C542.983765,170.947342 547.142273,175.614990 547.218567,179.183990 
	C547.324585,184.141266 547.170898,189.104095 547.040405,194.525452 
	C544.159119,196.977371 541.915039,200.424515 537.311035,198.254578 
	C536.642883,197.941711 536.376099,197.767303 536.078186,197.265625 
	C535.465759,196.481232 534.942871,195.928925 534.192505,195.200073 
z"/>
<path fill="#1F1F1F" opacity="1.000000" stroke="none" 
	d="
M537.026917,198.410614 
	C540.695984,199.031250 543.245728,196.385208 546.585571,195.026794 
	C544.375793,199.523560 541.806458,202.308777 537.026917,198.410614 
z"/>
<path fill="#1F1F1F" opacity="1.000000" stroke="none" 
	d="
M533.974121,195.341125 
	C534.921021,195.061859 535.714417,195.322632 535.962402,196.712921 
	C534.962830,197.095779 534.253540,196.696030 533.974121,195.341125 
z"/>
<path fill="#010101" opacity="1.000000" stroke="none" 
	d="
M375.313934,178.515610 
	C376.283966,177.563644 377.212769,177.165985 377.918030,176.523071 
	C379.511108,175.070831 381.064240,173.004700 383.421295,174.398483 
	C385.796661,175.803116 388.120941,177.565750 388.032471,180.924362 
	C387.954041,183.902054 387.861145,186.894272 388.064056,189.860275 
	C388.268341,192.846756 387.212280,195.100250 384.693359,196.508408 
	C382.337860,197.825211 380.261597,196.763458 378.335724,195.238358 
	C377.698303,194.733582 376.886566,194.448929 375.829285,193.994232 
	C374.583557,188.954102 375.126312,183.950806 375.313934,178.515610 
z"/>
</svg>